G04 #@! TF.FileFunction,Soldermask,Top*
%FSLAX46Y46*%
G04 Gerber Fmt 4.6, Leading zero omitted, Abs format (unit mm)*
G04 Created by KiCad (PCBNEW 4.0.7-e2-6376~58~ubuntu14.04.1) date Mon Feb 17 06:04:18 2020*
%MOMM*%
%LPD*%
G01*
G04 APERTURE LIST*
%ADD10C,0.100000*%
%ADD11R,2.200000X2.200000*%
%ADD12C,2.200000*%
%ADD13R,2.700000X2.700000*%
%ADD14C,2.700000*%
%ADD15R,2.000000X2.000000*%
%ADD16C,2.000000*%
%ADD17R,2.400000X2.400000*%
%ADD18C,2.400000*%
%ADD19R,1.600000X1.600000*%
%ADD20C,1.600000*%
%ADD21R,2.200000X2.900000*%
%ADD22R,1.300000X1.200000*%
%ADD23R,1.200000X1.300000*%
%ADD24R,5.400000X2.200000*%
%ADD25R,5.400000X4.360000*%
%ADD26R,3.900120X3.900120*%
%ADD27C,3.399740*%
%ADD28C,2.398980*%
%ADD29R,1.800000X1.600000*%
%ADD30R,1.800000X1.400000*%
%ADD31R,2.100000X1.800000*%
%ADD32R,1.800000X2.100000*%
%ADD33C,4.400000*%
%ADD34R,1.000000X2.400000*%
%ADD35R,1.000000X1.900000*%
%ADD36R,2.400000X4.900000*%
%ADD37R,2.100000X2.100000*%
%ADD38O,2.100000X2.100000*%
%ADD39R,1.950000X1.000000*%
%ADD40C,6.000000*%
%ADD41C,1.400000*%
%ADD42R,1.400000X1.400000*%
G04 APERTURE END LIST*
D10*
D11*
X159500000Y-34250000D03*
D12*
X159500000Y-31710000D03*
D13*
X65090000Y-60800000D03*
D14*
X65090000Y-65870000D03*
D15*
X146510000Y-47630000D03*
D16*
X146510000Y-50130000D03*
D15*
X115600000Y-30350000D03*
X115600000Y-32650000D03*
D17*
X137000000Y-29780000D03*
D18*
X142000000Y-29780000D03*
D15*
X131090000Y-42710000D03*
X128790000Y-42710000D03*
D17*
X125060000Y-29780000D03*
D18*
X120060000Y-29780000D03*
D19*
X95000000Y-59000000D03*
D20*
X95000000Y-61000000D03*
D17*
X100850000Y-29780000D03*
D18*
X95850000Y-29780000D03*
D15*
X105000000Y-34850000D03*
X105000000Y-37150000D03*
D21*
X130870000Y-34670000D03*
X130870000Y-30670000D03*
D22*
X99000000Y-57050000D03*
X99000000Y-58950000D03*
X101000000Y-58000000D03*
D23*
X97910000Y-80330000D03*
X99810000Y-80330000D03*
X98860000Y-78330000D03*
D21*
X146000000Y-40200000D03*
X146000000Y-36200000D03*
D12*
X67857000Y-81080000D03*
X67857000Y-70920000D03*
D24*
X66350000Y-76000000D03*
D25*
X66350000Y-72380000D03*
X66350000Y-79620000D03*
D12*
X67857000Y-78540000D03*
X67857000Y-73460000D03*
X67857000Y-76000000D03*
D26*
X150199860Y-40500000D03*
X156199340Y-40500000D03*
X153199600Y-35801000D03*
D27*
X89498840Y-52000000D03*
X72501160Y-52000000D03*
D28*
X130391260Y-38280000D03*
X120231260Y-38280000D03*
X115501260Y-26750000D03*
X105341260Y-26750000D03*
D22*
X79000000Y-66950000D03*
X79000000Y-65050000D03*
X77000000Y-66000000D03*
X83000000Y-69950000D03*
X83000000Y-68050000D03*
X81000000Y-69000000D03*
X88000000Y-62950000D03*
X88000000Y-61050000D03*
X86000000Y-62000000D03*
D29*
X105980000Y-69370000D03*
D30*
X105980000Y-67650000D03*
X103780000Y-67650000D03*
X103780000Y-69550000D03*
D22*
X106190000Y-79560000D03*
X106190000Y-81460000D03*
X108190000Y-80510000D03*
D31*
X142810000Y-41010000D03*
X142810000Y-43410000D03*
D32*
X138730000Y-47890000D03*
X141130000Y-47890000D03*
X135200000Y-47890000D03*
X132800000Y-47890000D03*
D19*
X143675000Y-61850000D03*
D20*
X141675000Y-61850000D03*
D15*
X121750000Y-52925000D03*
X121750000Y-55225000D03*
D19*
X141020000Y-56590000D03*
D20*
X139020000Y-56590000D03*
D19*
X137370000Y-60870000D03*
D20*
X137370000Y-62870000D03*
D15*
X114000000Y-45250000D03*
X114000000Y-47550000D03*
D19*
X146975000Y-68350000D03*
D20*
X146975000Y-70350000D03*
D15*
X121600000Y-45250000D03*
X121600000Y-47550000D03*
X154350000Y-55600000D03*
D16*
X154350000Y-58370000D03*
X154350000Y-61140000D03*
X154350000Y-63910000D03*
X154350000Y-66680000D03*
X157190000Y-56985000D03*
X157190000Y-59755000D03*
X157190000Y-62525000D03*
X157190000Y-65295000D03*
D33*
X154650000Y-73640000D03*
X154650000Y-48640000D03*
D31*
X125200000Y-51320000D03*
X125200000Y-48920000D03*
D34*
X115220000Y-72600000D03*
X116490000Y-72600000D03*
X117760000Y-72600000D03*
X119030000Y-72600000D03*
X120300000Y-72600000D03*
X121570000Y-72600000D03*
X122840000Y-72600000D03*
X124110000Y-72600000D03*
X125380000Y-72600000D03*
X125380000Y-63200000D03*
X124110000Y-63200000D03*
X122840000Y-63200000D03*
X121570000Y-63200000D03*
X120300000Y-63200000D03*
X119030000Y-63200000D03*
X117760000Y-63200000D03*
X116490000Y-63200000D03*
X115220000Y-63200000D03*
D35*
X143745000Y-66375000D03*
X142475000Y-66375000D03*
X141205000Y-66375000D03*
X139935000Y-66375000D03*
X138665000Y-66375000D03*
X137395000Y-66375000D03*
X136125000Y-66375000D03*
X134855000Y-66375000D03*
X134855000Y-71775000D03*
X136125000Y-71775000D03*
X137395000Y-71775000D03*
X138665000Y-71775000D03*
X139935000Y-71775000D03*
X141205000Y-71775000D03*
X142475000Y-71775000D03*
X143745000Y-71775000D03*
D36*
X117800000Y-52625000D03*
X117800000Y-44125000D03*
D37*
X128240000Y-48920000D03*
D38*
X128240000Y-51460000D03*
X128240000Y-54000000D03*
X128240000Y-56540000D03*
X128240000Y-59080000D03*
D15*
X106760000Y-73450000D03*
X104460000Y-73450000D03*
X95010000Y-52070000D03*
X95010000Y-54370000D03*
D32*
X104410000Y-77130000D03*
X106810000Y-77130000D03*
X109280000Y-75550000D03*
X111680000Y-75550000D03*
D28*
X112490000Y-62058740D03*
X112490000Y-72218740D03*
D15*
X104000000Y-57850000D03*
X104000000Y-60150000D03*
D31*
X108310000Y-61890000D03*
X108310000Y-64290000D03*
D15*
X95850000Y-69000000D03*
X98150000Y-69000000D03*
D31*
X100810000Y-66310000D03*
X100810000Y-63910000D03*
D32*
X89440000Y-67340000D03*
X91840000Y-67340000D03*
D15*
X91000000Y-60850000D03*
X91000000Y-63150000D03*
D32*
X82800000Y-65000000D03*
X85200000Y-65000000D03*
D15*
X88850000Y-74000000D03*
X91150000Y-74000000D03*
X92850000Y-77000000D03*
X95150000Y-77000000D03*
D32*
X72800000Y-69950000D03*
X75200000Y-69950000D03*
X94800000Y-74000000D03*
X97200000Y-74000000D03*
D15*
X74150000Y-61000000D03*
X71850000Y-61000000D03*
X74150000Y-57000000D03*
X71850000Y-57000000D03*
D39*
X134370000Y-40175000D03*
X134370000Y-41445000D03*
X134370000Y-42715000D03*
X134370000Y-43985000D03*
X139770000Y-43985000D03*
X139770000Y-42715000D03*
X139770000Y-41445000D03*
X139770000Y-40175000D03*
D11*
X159500000Y-81500000D03*
D12*
X159500000Y-78960000D03*
D11*
X159500000Y-29000000D03*
D12*
X159500000Y-26460000D03*
D32*
X152800000Y-80000000D03*
X155200000Y-80000000D03*
D31*
X156000000Y-28200000D03*
X156000000Y-25800000D03*
D32*
X153300000Y-30750000D03*
X155700000Y-30750000D03*
D40*
X82000000Y-80000000D03*
X148000000Y-80000000D03*
X148000000Y-28000000D03*
X75000000Y-28000000D03*
D15*
X64850000Y-39000000D03*
X67150000Y-39000000D03*
X86150000Y-37000000D03*
X83850000Y-37000000D03*
X91150000Y-37000000D03*
X88850000Y-37000000D03*
X92400000Y-47150000D03*
X92400000Y-44850000D03*
X72850000Y-46000000D03*
X75150000Y-46000000D03*
D23*
X86050000Y-34000000D03*
X87950000Y-34000000D03*
X87000000Y-32000000D03*
X80950000Y-41000000D03*
X79050000Y-41000000D03*
X80000000Y-43000000D03*
D32*
X99200000Y-43000000D03*
X96800000Y-43000000D03*
D31*
X82000000Y-31800000D03*
X82000000Y-34200000D03*
D32*
X77200000Y-37000000D03*
X74800000Y-37000000D03*
X88800000Y-40000000D03*
X91200000Y-40000000D03*
X86200000Y-40000000D03*
X83800000Y-40000000D03*
X75200000Y-43000000D03*
X72800000Y-43000000D03*
D13*
X65090000Y-33730000D03*
D14*
X65090000Y-28660000D03*
D37*
X68000000Y-55000000D03*
D38*
X65460000Y-55000000D03*
X68000000Y-52460000D03*
X65460000Y-52460000D03*
X68000000Y-49920000D03*
X65460000Y-49920000D03*
X68000000Y-47380000D03*
X65460000Y-47380000D03*
X68000000Y-44840000D03*
X65460000Y-44840000D03*
X68000000Y-42300000D03*
X65460000Y-42300000D03*
D15*
X102670000Y-53140000D03*
X100370000Y-53140000D03*
D32*
X106880000Y-51400000D03*
X109280000Y-51400000D03*
D41*
X106520000Y-47770000D03*
X105250000Y-49040000D03*
D42*
X105250000Y-46500000D03*
D15*
X130680000Y-63060000D03*
X128380000Y-63060000D03*
D19*
X132830000Y-59570000D03*
D20*
X132830000Y-57570000D03*
D15*
X84650000Y-27600000D03*
X86950000Y-27600000D03*
M02*
