G04 #@! TF.FileFunction,Copper,L2,Bot,Signal*
%FSLAX46Y46*%
G04 Gerber Fmt 4.6, Leading zero omitted, Abs format (unit mm)*
G04 Created by KiCad (PCBNEW 4.0.7-e2-6376~58~ubuntu14.04.1) date Mon Feb 17 06:04:18 2020*
%MOMM*%
%LPD*%
G01*
G04 APERTURE LIST*
%ADD10C,0.100000*%
%ADD11R,1.800000X1.800000*%
%ADD12C,1.800000*%
%ADD13R,2.300000X2.300000*%
%ADD14C,2.300000*%
%ADD15R,1.600000X1.600000*%
%ADD16C,1.600000*%
%ADD17R,2.000000X2.000000*%
%ADD18C,2.000000*%
%ADD19R,1.200000X1.200000*%
%ADD20C,1.200000*%
%ADD21R,5.000000X3.960000*%
%ADD22R,3.500120X3.500120*%
%ADD23C,2.999740*%
%ADD24C,1.998980*%
%ADD25C,4.000000*%
%ADD26R,1.700000X1.700000*%
%ADD27O,1.700000X1.700000*%
%ADD28C,5.600000*%
%ADD29C,1.000000*%
%ADD30R,1.000000X1.000000*%
%ADD31C,0.600000*%
%ADD32C,0.250000*%
%ADD33C,0.254000*%
G04 APERTURE END LIST*
D10*
D11*
X159500000Y-34250000D03*
D12*
X159500000Y-31710000D03*
D13*
X65090000Y-60800000D03*
D14*
X65090000Y-65870000D03*
D15*
X146510000Y-47630000D03*
D16*
X146510000Y-50130000D03*
D17*
X137000000Y-29780000D03*
D18*
X142000000Y-29780000D03*
D17*
X125060000Y-29780000D03*
D18*
X120060000Y-29780000D03*
D19*
X95000000Y-59000000D03*
D20*
X95000000Y-61000000D03*
D17*
X100850000Y-29780000D03*
D18*
X95850000Y-29780000D03*
D12*
X67857000Y-81080000D03*
X67857000Y-70920000D03*
D21*
X66350000Y-72380000D03*
X66350000Y-79620000D03*
D12*
X67857000Y-78540000D03*
X67857000Y-73460000D03*
X67857000Y-76000000D03*
D22*
X150199860Y-40500000D03*
X156199340Y-40500000D03*
X153199600Y-35801000D03*
D23*
X89498840Y-52000000D03*
X72501160Y-52000000D03*
D24*
X130391260Y-38280000D03*
X120231260Y-38280000D03*
X115501260Y-26750000D03*
X105341260Y-26750000D03*
D19*
X143675000Y-61850000D03*
D20*
X141675000Y-61850000D03*
D19*
X141020000Y-56590000D03*
D20*
X139020000Y-56590000D03*
D19*
X137370000Y-60870000D03*
D20*
X137370000Y-62870000D03*
D19*
X146975000Y-68350000D03*
D20*
X146975000Y-70350000D03*
D15*
X154350000Y-55600000D03*
D16*
X154350000Y-58370000D03*
X154350000Y-61140000D03*
X154350000Y-63910000D03*
X154350000Y-66680000D03*
X157190000Y-56985000D03*
X157190000Y-59755000D03*
X157190000Y-62525000D03*
X157190000Y-65295000D03*
D25*
X154650000Y-73640000D03*
X154650000Y-48640000D03*
D26*
X128240000Y-48920000D03*
D27*
X128240000Y-51460000D03*
X128240000Y-54000000D03*
X128240000Y-56540000D03*
X128240000Y-59080000D03*
D24*
X112490000Y-62058740D03*
X112490000Y-72218740D03*
D11*
X159500000Y-81500000D03*
D12*
X159500000Y-78960000D03*
D11*
X159500000Y-29000000D03*
D12*
X159500000Y-26460000D03*
D28*
X82000000Y-80000000D03*
X148000000Y-80000000D03*
X148000000Y-28000000D03*
X75000000Y-28000000D03*
D13*
X65090000Y-33730000D03*
D14*
X65090000Y-28660000D03*
D26*
X68000000Y-55000000D03*
D27*
X65460000Y-55000000D03*
X68000000Y-52460000D03*
X65460000Y-52460000D03*
X68000000Y-49920000D03*
X65460000Y-49920000D03*
X68000000Y-47380000D03*
X65460000Y-47380000D03*
X68000000Y-44840000D03*
X65460000Y-44840000D03*
X68000000Y-42300000D03*
X65460000Y-42300000D03*
D29*
X106520000Y-47770000D03*
X105250000Y-49040000D03*
D30*
X105250000Y-46500000D03*
D19*
X132830000Y-59570000D03*
D20*
X132830000Y-57570000D03*
D31*
X132000000Y-71500000D03*
X128500000Y-71500000D03*
X128500000Y-67750000D03*
X137000000Y-41500000D03*
X137000000Y-37250000D03*
X86750000Y-45750000D03*
X80500000Y-45750000D03*
X84250000Y-52250000D03*
X78500000Y-52250000D03*
X122250000Y-66000000D03*
X120250000Y-77250000D03*
X144400000Y-52200000D03*
X151750000Y-59750000D03*
X78750000Y-33250000D03*
X100000000Y-40000000D03*
X96500000Y-40000000D03*
X105000000Y-40000000D03*
X96500000Y-35250000D03*
X98000000Y-71500000D03*
X88750000Y-75750000D03*
X88750000Y-78750000D03*
X90500000Y-80250000D03*
X95000000Y-80250000D03*
X98500000Y-75750000D03*
X74000000Y-79500000D03*
X69500000Y-66500000D03*
X72750000Y-66500000D03*
X72250000Y-73000000D03*
X75750000Y-73000000D03*
X79250000Y-73000000D03*
X83000000Y-73000000D03*
X85250000Y-67750000D03*
X88000000Y-70500000D03*
X92000000Y-70500000D03*
X77000000Y-61000000D03*
X80750000Y-61000000D03*
X84750000Y-59250000D03*
X89250000Y-59250000D03*
X89250000Y-63750000D03*
X101500000Y-80500000D03*
X101500000Y-75500000D03*
X102250000Y-57000000D03*
X96750000Y-57500000D03*
X95000000Y-49500000D03*
X92750000Y-59000000D03*
X93250000Y-63000000D03*
X94000000Y-67250000D03*
X100750000Y-61000000D03*
X107750000Y-58250000D03*
X106000000Y-62250000D03*
X97750000Y-64750000D03*
X101500000Y-71250000D03*
X116250000Y-69250000D03*
X111250000Y-70000000D03*
X109250000Y-67250000D03*
X111250000Y-67250000D03*
X109250000Y-71000000D03*
X105500000Y-71250000D03*
X116500000Y-65500000D03*
X112500000Y-64500000D03*
X139200000Y-45400000D03*
X141000000Y-49600000D03*
X70600000Y-42800000D03*
X71600000Y-37000000D03*
X80400000Y-38000000D03*
X74800000Y-39800000D03*
X93200000Y-37000000D03*
X90600000Y-33600000D03*
X84200000Y-32800000D03*
X82600000Y-27600000D03*
X93200000Y-40000000D03*
X121600000Y-42800000D03*
X128800000Y-40400000D03*
X125400000Y-40400000D03*
X125400000Y-44600000D03*
X132830000Y-66210000D03*
X120300000Y-69360000D03*
X143750000Y-69350000D03*
X119000000Y-68000000D03*
X127600000Y-76000000D03*
X143800000Y-76000000D03*
X129500000Y-75300000D03*
X140500000Y-75300000D03*
X128500000Y-74100000D03*
X139400000Y-74100000D03*
D32*
X132000000Y-71500000D02*
X128500000Y-71500000D01*
X137000000Y-37250000D02*
X137000000Y-41500000D01*
X78500000Y-52250000D02*
X84250000Y-52250000D01*
X144400000Y-52200000D02*
X144400000Y-52400000D01*
X146470000Y-50130000D02*
X144400000Y-52200000D01*
X144400000Y-52400000D02*
X151750000Y-59750000D01*
X96500000Y-35250000D02*
X96500000Y-40000000D01*
X100000000Y-40000000D02*
X96500000Y-40000000D01*
X98500000Y-75750000D02*
X88750000Y-75750000D01*
X95000000Y-80250000D02*
X90500000Y-80250000D01*
X88750000Y-75750000D02*
X88750000Y-78750000D01*
X72750000Y-66500000D02*
X69500000Y-66500000D01*
X75750000Y-73000000D02*
X72250000Y-73000000D01*
X83000000Y-73000000D02*
X79250000Y-73000000D01*
X92000000Y-70500000D02*
X88000000Y-70500000D01*
X77000000Y-61000000D02*
X80750000Y-61000000D01*
X84750000Y-59250000D02*
X89250000Y-59250000D01*
X101500000Y-75500000D02*
X101500000Y-80500000D01*
X102250000Y-62250000D02*
X102250000Y-57000000D01*
X100750000Y-61000000D02*
X100250000Y-61000000D01*
X100250000Y-61000000D02*
X96750000Y-57500000D01*
X93500000Y-63000000D02*
X93250000Y-63000000D01*
X94000000Y-63500000D02*
X93500000Y-63000000D01*
X94000000Y-67250000D02*
X94000000Y-63500000D01*
X102000000Y-62250000D02*
X100750000Y-61000000D01*
X110250000Y-60750000D02*
X107750000Y-58250000D01*
X110250000Y-67250000D02*
X110250000Y-60750000D01*
X106000000Y-62250000D02*
X102250000Y-62250000D01*
X102250000Y-62250000D02*
X102000000Y-62250000D01*
X115500000Y-65500000D02*
X115500000Y-68500000D01*
X115500000Y-68500000D02*
X116250000Y-69250000D01*
X109250000Y-67250000D02*
X110250000Y-67250000D01*
X110250000Y-67250000D02*
X111250000Y-67250000D01*
X105750000Y-71000000D02*
X109250000Y-71000000D01*
X105500000Y-71250000D02*
X105750000Y-71000000D01*
X113500000Y-65500000D02*
X115500000Y-65500000D01*
X115500000Y-65500000D02*
X116500000Y-65500000D01*
X112500000Y-64500000D02*
X113500000Y-65500000D01*
X146510000Y-50130000D02*
X146470000Y-50130000D01*
X79000000Y-39400000D02*
X80400000Y-38000000D01*
X75200000Y-39400000D02*
X79000000Y-39400000D01*
X74800000Y-39800000D02*
X75200000Y-39400000D01*
X84200000Y-31200000D02*
X84200000Y-32800000D01*
X82600000Y-29600000D02*
X84200000Y-31200000D01*
X82600000Y-27600000D02*
X82600000Y-29600000D01*
X128800000Y-40400000D02*
X125400000Y-40400000D01*
X132830000Y-66210000D02*
X132830000Y-69360000D01*
X132830000Y-69360000D02*
X120300000Y-69360000D01*
X143740000Y-69360000D02*
X132830000Y-69360000D01*
X143750000Y-69350000D02*
X143740000Y-69360000D01*
X119000000Y-68000000D02*
X119000000Y-48920000D01*
X128240000Y-48920000D02*
X119000000Y-48920000D01*
X127600000Y-76000000D02*
X143800000Y-76000000D01*
X140500000Y-75300000D02*
X129500000Y-75300000D01*
X139400000Y-74100000D02*
X128500000Y-74100000D01*
D33*
G36*
X73062973Y-25082122D02*
X73045501Y-25093797D01*
X72727265Y-25547660D01*
X75000000Y-27820395D01*
X77272735Y-25547660D01*
X76954499Y-25093797D01*
X76035737Y-24710000D01*
X146969035Y-24710000D01*
X146062973Y-25082122D01*
X146045501Y-25093797D01*
X145727265Y-25547660D01*
X148000000Y-27820395D01*
X150272735Y-25547660D01*
X149954499Y-25093797D01*
X149035737Y-24710000D01*
X161290000Y-24710000D01*
X161290000Y-83290000D01*
X149030965Y-83290000D01*
X149937027Y-82917878D01*
X149954499Y-82906203D01*
X150272735Y-82452340D01*
X148000000Y-80179605D01*
X145727265Y-82452340D01*
X146045501Y-82906203D01*
X146964263Y-83290000D01*
X83030965Y-83290000D01*
X83937027Y-82917878D01*
X83954499Y-82906203D01*
X84272735Y-82452340D01*
X82000000Y-80179605D01*
X79727265Y-82452340D01*
X80045501Y-82906203D01*
X80964263Y-83290000D01*
X64210000Y-83290000D01*
X64210000Y-82235000D01*
X66064250Y-82235000D01*
X66223000Y-82076250D01*
X66223000Y-79747000D01*
X66203000Y-79747000D01*
X66203000Y-79493000D01*
X66223000Y-79493000D01*
X66223000Y-77163750D01*
X66064250Y-77005000D01*
X64210000Y-77005000D01*
X64210000Y-74995000D01*
X66064250Y-74995000D01*
X66223000Y-74836250D01*
X66223000Y-72507000D01*
X66203000Y-72507000D01*
X66203000Y-72253000D01*
X66223000Y-72253000D01*
X66223000Y-70679336D01*
X66310542Y-70679336D01*
X66336161Y-71289460D01*
X66477000Y-71629475D01*
X66477000Y-72253000D01*
X66999177Y-72253000D01*
X66956446Y-72379841D01*
X67083605Y-72507000D01*
X66477000Y-72507000D01*
X66477000Y-72764359D01*
X66310542Y-73219336D01*
X66336161Y-73829460D01*
X66477000Y-74169475D01*
X66477000Y-74836250D01*
X66635750Y-74995000D01*
X66691041Y-74995000D01*
X66556449Y-75129357D01*
X66322267Y-75693330D01*
X66321735Y-76303991D01*
X66554932Y-76868371D01*
X66691322Y-77005000D01*
X66635750Y-77005000D01*
X66477000Y-77163750D01*
X66477000Y-77844359D01*
X66310542Y-78299336D01*
X66336161Y-78909460D01*
X66477000Y-79249475D01*
X66477000Y-79493000D01*
X67083605Y-79493000D01*
X66956446Y-79620159D01*
X66999177Y-79747000D01*
X66477000Y-79747000D01*
X66477000Y-80384359D01*
X66310542Y-80839336D01*
X66336161Y-81449460D01*
X66477000Y-81789475D01*
X66477000Y-82076250D01*
X66635750Y-82235000D01*
X66802172Y-82235000D01*
X66841890Y-82274718D01*
X66881608Y-82235000D01*
X66981659Y-82235000D01*
X67042852Y-82416643D01*
X67616336Y-82626458D01*
X68226460Y-82600839D01*
X68671148Y-82416643D01*
X68732341Y-82235000D01*
X68832392Y-82235000D01*
X68872110Y-82274718D01*
X68911828Y-82235000D01*
X68976309Y-82235000D01*
X69209698Y-82138327D01*
X69388327Y-81959699D01*
X69485000Y-81726310D01*
X69485000Y-80672956D01*
X78562965Y-80672956D01*
X79082122Y-81937027D01*
X79093797Y-81954499D01*
X79547660Y-82272735D01*
X81820395Y-80000000D01*
X82179605Y-80000000D01*
X84452340Y-82272735D01*
X84906203Y-81954499D01*
X85432936Y-80693566D01*
X85432997Y-80672956D01*
X144562965Y-80672956D01*
X145082122Y-81937027D01*
X145093797Y-81954499D01*
X145547660Y-82272735D01*
X147820395Y-80000000D01*
X148179605Y-80000000D01*
X150452340Y-82272735D01*
X150906203Y-81954499D01*
X150976694Y-81785750D01*
X157965000Y-81785750D01*
X157965000Y-82526309D01*
X158061673Y-82759698D01*
X158240301Y-82938327D01*
X158473690Y-83035000D01*
X159214250Y-83035000D01*
X159373000Y-82876250D01*
X159373000Y-81627000D01*
X159627000Y-81627000D01*
X159627000Y-82876250D01*
X159785750Y-83035000D01*
X160526310Y-83035000D01*
X160759699Y-82938327D01*
X160938327Y-82759698D01*
X161035000Y-82526309D01*
X161035000Y-81785750D01*
X160876250Y-81627000D01*
X159627000Y-81627000D01*
X159373000Y-81627000D01*
X158123750Y-81627000D01*
X157965000Y-81785750D01*
X150976694Y-81785750D01*
X151432936Y-80693566D01*
X151437035Y-79327044D01*
X151411139Y-79263991D01*
X157964735Y-79263991D01*
X158197932Y-79828371D01*
X158375092Y-80005841D01*
X158240301Y-80061673D01*
X158061673Y-80240302D01*
X157965000Y-80473691D01*
X157965000Y-81214250D01*
X158123750Y-81373000D01*
X159373000Y-81373000D01*
X159373000Y-81353000D01*
X159627000Y-81353000D01*
X159627000Y-81373000D01*
X160876250Y-81373000D01*
X161035000Y-81214250D01*
X161035000Y-80473691D01*
X160938327Y-80240302D01*
X160759699Y-80061673D01*
X160625006Y-80005881D01*
X160800551Y-79830643D01*
X161034733Y-79266670D01*
X161035265Y-78656009D01*
X160802068Y-78091629D01*
X160370643Y-77659449D01*
X159806670Y-77425267D01*
X159196009Y-77424735D01*
X158631629Y-77657932D01*
X158199449Y-78089357D01*
X157965267Y-78653330D01*
X157964735Y-79263991D01*
X151411139Y-79263991D01*
X150917878Y-78062973D01*
X150906203Y-78045501D01*
X150452340Y-77727265D01*
X148179605Y-80000000D01*
X147820395Y-80000000D01*
X145547660Y-77727265D01*
X145093797Y-78045501D01*
X144567064Y-79306434D01*
X144562965Y-80672956D01*
X85432997Y-80672956D01*
X85437035Y-79327044D01*
X84917878Y-78062973D01*
X84906203Y-78045501D01*
X84452340Y-77727265D01*
X82179605Y-80000000D01*
X81820395Y-80000000D01*
X79547660Y-77727265D01*
X79093797Y-78045501D01*
X78567064Y-79306434D01*
X78562965Y-80672956D01*
X69485000Y-80672956D01*
X69485000Y-79905750D01*
X69326250Y-79747000D01*
X68714823Y-79747000D01*
X68757554Y-79620159D01*
X68630395Y-79493000D01*
X69326250Y-79493000D01*
X69485000Y-79334250D01*
X69485000Y-77547660D01*
X79727265Y-77547660D01*
X82000000Y-79820395D01*
X84272735Y-77547660D01*
X145727265Y-77547660D01*
X148000000Y-79820395D01*
X150272735Y-77547660D01*
X149954499Y-77093797D01*
X148693566Y-76567064D01*
X147327044Y-76562965D01*
X146062973Y-77082122D01*
X146045501Y-77093797D01*
X145727265Y-77547660D01*
X84272735Y-77547660D01*
X83954499Y-77093797D01*
X82693566Y-76567064D01*
X81327044Y-76562965D01*
X80062973Y-77082122D01*
X80045501Y-77093797D01*
X79727265Y-77547660D01*
X69485000Y-77547660D01*
X69485000Y-77513690D01*
X69388327Y-77280301D01*
X69209698Y-77101673D01*
X69009279Y-77018656D01*
X69157551Y-76870643D01*
X69391733Y-76306670D01*
X69391838Y-76185167D01*
X126664838Y-76185167D01*
X126806883Y-76528943D01*
X127069673Y-76792192D01*
X127413201Y-76934838D01*
X127785167Y-76935162D01*
X128128943Y-76793117D01*
X128162118Y-76760000D01*
X143237537Y-76760000D01*
X143269673Y-76792192D01*
X143613201Y-76934838D01*
X143985167Y-76935162D01*
X144328943Y-76793117D01*
X144592192Y-76530327D01*
X144734838Y-76186799D01*
X144735162Y-75814833D01*
X144593117Y-75471057D01*
X144330327Y-75207808D01*
X143986799Y-75065162D01*
X143614833Y-75064838D01*
X143271057Y-75206883D01*
X143237882Y-75240000D01*
X141435053Y-75240000D01*
X141435162Y-75114833D01*
X141293117Y-74771057D01*
X141030327Y-74507808D01*
X140686799Y-74365162D01*
X140314833Y-74364838D01*
X140299865Y-74371023D01*
X140334838Y-74286799D01*
X140334946Y-74161834D01*
X152014543Y-74161834D01*
X152414853Y-75130658D01*
X153155443Y-75872542D01*
X154123567Y-76274542D01*
X155171834Y-76275457D01*
X156140658Y-75875147D01*
X156882542Y-75134557D01*
X157284542Y-74166433D01*
X157285457Y-73118166D01*
X156885147Y-72149342D01*
X156144557Y-71407458D01*
X155176433Y-71005458D01*
X154128166Y-71004543D01*
X153159342Y-71404853D01*
X152417458Y-72145443D01*
X152015458Y-73113567D01*
X152014543Y-74161834D01*
X140334946Y-74161834D01*
X140335162Y-73914833D01*
X140193117Y-73571057D01*
X139930327Y-73307808D01*
X139586799Y-73165162D01*
X139214833Y-73164838D01*
X138871057Y-73306883D01*
X138837882Y-73340000D01*
X129062463Y-73340000D01*
X129030327Y-73307808D01*
X128686799Y-73165162D01*
X128314833Y-73164838D01*
X127971057Y-73306883D01*
X127707808Y-73569673D01*
X127565162Y-73913201D01*
X127564838Y-74285167D01*
X127706883Y-74628943D01*
X127969673Y-74892192D01*
X128313201Y-75034838D01*
X128597598Y-75035086D01*
X128565162Y-75113201D01*
X128565052Y-75240000D01*
X128162463Y-75240000D01*
X128130327Y-75207808D01*
X127786799Y-75065162D01*
X127414833Y-75064838D01*
X127071057Y-75206883D01*
X126807808Y-75469673D01*
X126665162Y-75813201D01*
X126664838Y-76185167D01*
X69391838Y-76185167D01*
X69392265Y-75696009D01*
X69159068Y-75131629D01*
X69009113Y-74981412D01*
X69209698Y-74898327D01*
X69388327Y-74719699D01*
X69485000Y-74486310D01*
X69485000Y-72665750D01*
X69361684Y-72542434D01*
X110855226Y-72542434D01*
X111103538Y-73143395D01*
X111562927Y-73603586D01*
X112163453Y-73852946D01*
X112813694Y-73853514D01*
X113414655Y-73605202D01*
X113874846Y-73145813D01*
X114124206Y-72545287D01*
X114124774Y-71895046D01*
X113876462Y-71294085D01*
X113417073Y-70833894D01*
X112816547Y-70584534D01*
X112166306Y-70583966D01*
X111565345Y-70832278D01*
X111105154Y-71291667D01*
X110855794Y-71892193D01*
X110855226Y-72542434D01*
X69361684Y-72542434D01*
X69326250Y-72507000D01*
X68630395Y-72507000D01*
X68757554Y-72379841D01*
X68714823Y-72253000D01*
X69326250Y-72253000D01*
X69485000Y-72094250D01*
X69485000Y-70273690D01*
X69388327Y-70040301D01*
X69209698Y-69861673D01*
X68976309Y-69765000D01*
X68911828Y-69765000D01*
X68872110Y-69725282D01*
X68832392Y-69765000D01*
X68732341Y-69765000D01*
X68671148Y-69583357D01*
X68566764Y-69545167D01*
X119364838Y-69545167D01*
X119506883Y-69888943D01*
X119769673Y-70152192D01*
X120113201Y-70294838D01*
X120485167Y-70295162D01*
X120828943Y-70153117D01*
X120862118Y-70120000D01*
X143197520Y-70120000D01*
X143219673Y-70142192D01*
X143563201Y-70284838D01*
X143935167Y-70285162D01*
X144278943Y-70143117D01*
X144542192Y-69880327D01*
X144684838Y-69536799D01*
X144685162Y-69164833D01*
X144543117Y-68821057D01*
X144280327Y-68557808D01*
X143936799Y-68415162D01*
X143564833Y-68414838D01*
X143221057Y-68556883D01*
X143177865Y-68600000D01*
X133590000Y-68600000D01*
X133590000Y-67750000D01*
X145727560Y-67750000D01*
X145727560Y-68950000D01*
X145771838Y-69185317D01*
X145910910Y-69401441D01*
X146068958Y-69509431D01*
X145928629Y-69649515D01*
X145740215Y-70103266D01*
X145739786Y-70594579D01*
X145927408Y-71048657D01*
X146274515Y-71396371D01*
X146728266Y-71584785D01*
X147219579Y-71585214D01*
X147673657Y-71397592D01*
X148021371Y-71050485D01*
X148209785Y-70596734D01*
X148210214Y-70105421D01*
X148022592Y-69651343D01*
X147879891Y-69508392D01*
X148026441Y-69414090D01*
X148171431Y-69201890D01*
X148222440Y-68950000D01*
X148222440Y-67750000D01*
X148210726Y-67687745D01*
X153521861Y-67687745D01*
X153595995Y-67933864D01*
X154133223Y-68126965D01*
X154703454Y-68099778D01*
X155104005Y-67933864D01*
X155178139Y-67687745D01*
X154350000Y-66859605D01*
X153521861Y-67687745D01*
X148210726Y-67687745D01*
X148178162Y-67514683D01*
X148039090Y-67298559D01*
X147826890Y-67153569D01*
X147575000Y-67102560D01*
X146375000Y-67102560D01*
X146139683Y-67146838D01*
X145923559Y-67285910D01*
X145778569Y-67498110D01*
X145727560Y-67750000D01*
X133590000Y-67750000D01*
X133590000Y-66772463D01*
X133622192Y-66740327D01*
X133737256Y-66463223D01*
X152903035Y-66463223D01*
X152930222Y-67033454D01*
X153096136Y-67434005D01*
X153342255Y-67508139D01*
X154170395Y-66680000D01*
X154529605Y-66680000D01*
X155357745Y-67508139D01*
X155603864Y-67434005D01*
X155796965Y-66896777D01*
X155769778Y-66326546D01*
X155603864Y-65925995D01*
X155357745Y-65851861D01*
X154529605Y-66680000D01*
X154170395Y-66680000D01*
X153342255Y-65851861D01*
X153096136Y-65925995D01*
X152903035Y-66463223D01*
X133737256Y-66463223D01*
X133764838Y-66396799D01*
X133765162Y-66024833D01*
X133623117Y-65681057D01*
X133360327Y-65417808D01*
X133016799Y-65275162D01*
X132644833Y-65274838D01*
X132301057Y-65416883D01*
X132037808Y-65679673D01*
X131895162Y-66023201D01*
X131894838Y-66395167D01*
X132036883Y-66738943D01*
X132070000Y-66772118D01*
X132070000Y-68600000D01*
X120862463Y-68600000D01*
X120830327Y-68567808D01*
X120486799Y-68425162D01*
X120114833Y-68424838D01*
X119771057Y-68566883D01*
X119507808Y-68829673D01*
X119365162Y-69173201D01*
X119364838Y-69545167D01*
X68566764Y-69545167D01*
X68097664Y-69373542D01*
X67487540Y-69399161D01*
X67042852Y-69583357D01*
X66981659Y-69765000D01*
X66881608Y-69765000D01*
X66841890Y-69725282D01*
X66802172Y-69765000D01*
X66635750Y-69765000D01*
X66477000Y-69923750D01*
X66477000Y-70224359D01*
X66310542Y-70679336D01*
X66223000Y-70679336D01*
X66223000Y-69923750D01*
X66064250Y-69765000D01*
X64210000Y-69765000D01*
X64210000Y-69500000D01*
X64155954Y-69228295D01*
X64002046Y-68997954D01*
X63189259Y-68185167D01*
X118064838Y-68185167D01*
X118206883Y-68528943D01*
X118469673Y-68792192D01*
X118813201Y-68934838D01*
X119185167Y-68935162D01*
X119528943Y-68793117D01*
X119792192Y-68530327D01*
X119934838Y-68186799D01*
X119935162Y-67814833D01*
X119793117Y-67471057D01*
X119760000Y-67437882D01*
X119760000Y-63114579D01*
X136134786Y-63114579D01*
X136322408Y-63568657D01*
X136669515Y-63916371D01*
X137123266Y-64104785D01*
X137614579Y-64105214D01*
X138068657Y-63917592D01*
X138416371Y-63570485D01*
X138604785Y-63116734D01*
X138605214Y-62625421D01*
X138417592Y-62171343D01*
X138340962Y-62094579D01*
X140439786Y-62094579D01*
X140627408Y-62548657D01*
X140974515Y-62896371D01*
X141428266Y-63084785D01*
X141919579Y-63085214D01*
X142373657Y-62897592D01*
X142516608Y-62754891D01*
X142610910Y-62901441D01*
X142823110Y-63046431D01*
X143075000Y-63097440D01*
X144275000Y-63097440D01*
X144510317Y-63053162D01*
X144726441Y-62914090D01*
X144871431Y-62701890D01*
X144922440Y-62450000D01*
X144922440Y-61250000D01*
X144878162Y-61014683D01*
X144739090Y-60798559D01*
X144526890Y-60653569D01*
X144275000Y-60602560D01*
X143075000Y-60602560D01*
X142839683Y-60646838D01*
X142623559Y-60785910D01*
X142515569Y-60943958D01*
X142375485Y-60803629D01*
X141921734Y-60615215D01*
X141430421Y-60614786D01*
X140976343Y-60802408D01*
X140628629Y-61149515D01*
X140440215Y-61603266D01*
X140439786Y-62094579D01*
X138340962Y-62094579D01*
X138276753Y-62030258D01*
X138329699Y-62008327D01*
X138508327Y-61829698D01*
X138605000Y-61596309D01*
X138605000Y-61155750D01*
X138446250Y-60997000D01*
X137497000Y-60997000D01*
X137497000Y-61017000D01*
X137243000Y-61017000D01*
X137243000Y-60997000D01*
X136293750Y-60997000D01*
X136135000Y-61155750D01*
X136135000Y-61596309D01*
X136231673Y-61829698D01*
X136410301Y-62008327D01*
X136463164Y-62030224D01*
X136323629Y-62169515D01*
X136135215Y-62623266D01*
X136134786Y-63114579D01*
X119760000Y-63114579D01*
X119760000Y-56540000D01*
X126725907Y-56540000D01*
X126838946Y-57108285D01*
X127160853Y-57590054D01*
X127490026Y-57810000D01*
X127160853Y-58029946D01*
X126838946Y-58511715D01*
X126725907Y-59080000D01*
X126838946Y-59648285D01*
X127160853Y-60130054D01*
X127642622Y-60451961D01*
X128210907Y-60565000D01*
X128269093Y-60565000D01*
X128837378Y-60451961D01*
X129319147Y-60130054D01*
X129641054Y-59648285D01*
X129754093Y-59080000D01*
X129641054Y-58511715D01*
X129319147Y-58029946D01*
X128989974Y-57810000D01*
X129319147Y-57590054D01*
X129445444Y-57401036D01*
X131582193Y-57401036D01*
X131612518Y-57891413D01*
X131741836Y-58203617D01*
X131967263Y-58253129D01*
X131851570Y-58368822D01*
X131906397Y-58423649D01*
X131778559Y-58505910D01*
X131633569Y-58718110D01*
X131582560Y-58970000D01*
X131582560Y-60170000D01*
X131626838Y-60405317D01*
X131765910Y-60621441D01*
X131978110Y-60766431D01*
X132230000Y-60817440D01*
X133430000Y-60817440D01*
X133665317Y-60773162D01*
X133881441Y-60634090D01*
X134026431Y-60421890D01*
X134077440Y-60170000D01*
X134077440Y-60143691D01*
X136135000Y-60143691D01*
X136135000Y-60584250D01*
X136293750Y-60743000D01*
X137243000Y-60743000D01*
X137243000Y-59793750D01*
X137497000Y-59793750D01*
X137497000Y-60743000D01*
X138446250Y-60743000D01*
X138605000Y-60584250D01*
X138605000Y-60143691D01*
X138508327Y-59910302D01*
X138329699Y-59731673D01*
X138096310Y-59635000D01*
X137655750Y-59635000D01*
X137497000Y-59793750D01*
X137243000Y-59793750D01*
X137084250Y-59635000D01*
X136643690Y-59635000D01*
X136410301Y-59731673D01*
X136231673Y-59910302D01*
X136135000Y-60143691D01*
X134077440Y-60143691D01*
X134077440Y-58970000D01*
X134033162Y-58734683D01*
X133894090Y-58518559D01*
X133754245Y-58423007D01*
X133808430Y-58368822D01*
X133692737Y-58253129D01*
X133918164Y-58203617D01*
X134077807Y-57738964D01*
X134047482Y-57248587D01*
X133918164Y-56936383D01*
X133692735Y-56886870D01*
X133009605Y-57570000D01*
X133023748Y-57584143D01*
X132844143Y-57763748D01*
X132830000Y-57749605D01*
X132815858Y-57763748D01*
X132636253Y-57584143D01*
X132650395Y-57570000D01*
X131967265Y-56886870D01*
X131741836Y-56936383D01*
X131582193Y-57401036D01*
X129445444Y-57401036D01*
X129641054Y-57108285D01*
X129720821Y-56707265D01*
X132146870Y-56707265D01*
X132830000Y-57390395D01*
X133385816Y-56834579D01*
X137784786Y-56834579D01*
X137972408Y-57288657D01*
X138319515Y-57636371D01*
X138773266Y-57824785D01*
X139264579Y-57825214D01*
X139718657Y-57637592D01*
X139861608Y-57494891D01*
X139955910Y-57641441D01*
X140168110Y-57786431D01*
X140420000Y-57837440D01*
X141620000Y-57837440D01*
X141855317Y-57793162D01*
X142071441Y-57654090D01*
X142216431Y-57441890D01*
X142267440Y-57190000D01*
X142267440Y-55990000D01*
X142223162Y-55754683D01*
X142084090Y-55538559D01*
X141871890Y-55393569D01*
X141620000Y-55342560D01*
X140420000Y-55342560D01*
X140184683Y-55386838D01*
X139968559Y-55525910D01*
X139860569Y-55683958D01*
X139720485Y-55543629D01*
X139266734Y-55355215D01*
X138775421Y-55354786D01*
X138321343Y-55542408D01*
X137973629Y-55889515D01*
X137785215Y-56343266D01*
X137784786Y-56834579D01*
X133385816Y-56834579D01*
X133513130Y-56707265D01*
X133463617Y-56481836D01*
X132998964Y-56322193D01*
X132508587Y-56352518D01*
X132196383Y-56481836D01*
X132146870Y-56707265D01*
X129720821Y-56707265D01*
X129754093Y-56540000D01*
X129641054Y-55971715D01*
X129319147Y-55489946D01*
X128978447Y-55262298D01*
X129121358Y-55195183D01*
X129481501Y-54800000D01*
X152902560Y-54800000D01*
X152902560Y-56400000D01*
X152946838Y-56635317D01*
X153085910Y-56851441D01*
X153298110Y-56996431D01*
X153550000Y-57047440D01*
X153793087Y-57047440D01*
X153538200Y-57152757D01*
X153134176Y-57556077D01*
X152915250Y-58083309D01*
X152914752Y-58654187D01*
X153132757Y-59181800D01*
X153536077Y-59585824D01*
X153943850Y-59755146D01*
X153538200Y-59922757D01*
X153134176Y-60326077D01*
X152915250Y-60853309D01*
X152914752Y-61424187D01*
X153132757Y-61951800D01*
X153536077Y-62355824D01*
X153943850Y-62525146D01*
X153538200Y-62692757D01*
X153134176Y-63096077D01*
X152915250Y-63623309D01*
X152914752Y-64194187D01*
X153132757Y-64721800D01*
X153536077Y-65125824D01*
X153928060Y-65288590D01*
X153595995Y-65426136D01*
X153521861Y-65672255D01*
X154350000Y-66500395D01*
X155178139Y-65672255D01*
X155104005Y-65426136D01*
X154748062Y-65298196D01*
X155161800Y-65127243D01*
X155565824Y-64723923D01*
X155784750Y-64196691D01*
X155785248Y-63625813D01*
X155567243Y-63098200D01*
X155163923Y-62694176D01*
X154756150Y-62524854D01*
X155161800Y-62357243D01*
X155565824Y-61953923D01*
X155784750Y-61426691D01*
X155785248Y-60855813D01*
X155567243Y-60328200D01*
X155163923Y-59924176D01*
X154756150Y-59754854D01*
X155161800Y-59587243D01*
X155565824Y-59183923D01*
X155784750Y-58656691D01*
X155785248Y-58085813D01*
X155567243Y-57558200D01*
X155278734Y-57269187D01*
X155754752Y-57269187D01*
X155972757Y-57796800D01*
X156376077Y-58200824D01*
X156783850Y-58370146D01*
X156378200Y-58537757D01*
X155974176Y-58941077D01*
X155755250Y-59468309D01*
X155754752Y-60039187D01*
X155972757Y-60566800D01*
X156376077Y-60970824D01*
X156783850Y-61140146D01*
X156378200Y-61307757D01*
X155974176Y-61711077D01*
X155755250Y-62238309D01*
X155754752Y-62809187D01*
X155972757Y-63336800D01*
X156376077Y-63740824D01*
X156783850Y-63910146D01*
X156378200Y-64077757D01*
X155974176Y-64481077D01*
X155755250Y-65008309D01*
X155754752Y-65579187D01*
X155972757Y-66106800D01*
X156376077Y-66510824D01*
X156903309Y-66729750D01*
X157474187Y-66730248D01*
X158001800Y-66512243D01*
X158405824Y-66108923D01*
X158624750Y-65581691D01*
X158625248Y-65010813D01*
X158407243Y-64483200D01*
X158003923Y-64079176D01*
X157596150Y-63909854D01*
X158001800Y-63742243D01*
X158405824Y-63338923D01*
X158624750Y-62811691D01*
X158625248Y-62240813D01*
X158407243Y-61713200D01*
X158003923Y-61309176D01*
X157596150Y-61139854D01*
X158001800Y-60972243D01*
X158405824Y-60568923D01*
X158624750Y-60041691D01*
X158625248Y-59470813D01*
X158407243Y-58943200D01*
X158003923Y-58539176D01*
X157596150Y-58369854D01*
X158001800Y-58202243D01*
X158405824Y-57798923D01*
X158624750Y-57271691D01*
X158625248Y-56700813D01*
X158407243Y-56173200D01*
X158003923Y-55769176D01*
X157476691Y-55550250D01*
X156905813Y-55549752D01*
X156378200Y-55767757D01*
X155974176Y-56171077D01*
X155755250Y-56698309D01*
X155754752Y-57269187D01*
X155278734Y-57269187D01*
X155163923Y-57154176D01*
X154906874Y-57047440D01*
X155150000Y-57047440D01*
X155385317Y-57003162D01*
X155601441Y-56864090D01*
X155746431Y-56651890D01*
X155797440Y-56400000D01*
X155797440Y-54800000D01*
X155753162Y-54564683D01*
X155614090Y-54348559D01*
X155401890Y-54203569D01*
X155150000Y-54152560D01*
X153550000Y-54152560D01*
X153314683Y-54196838D01*
X153098559Y-54335910D01*
X152953569Y-54548110D01*
X152902560Y-54800000D01*
X129481501Y-54800000D01*
X129511645Y-54766924D01*
X129681476Y-54356890D01*
X129560155Y-54127000D01*
X128367000Y-54127000D01*
X128367000Y-54147000D01*
X128113000Y-54147000D01*
X128113000Y-54127000D01*
X126919845Y-54127000D01*
X126798524Y-54356890D01*
X126968355Y-54766924D01*
X127358642Y-55195183D01*
X127501553Y-55262298D01*
X127160853Y-55489946D01*
X126838946Y-55971715D01*
X126725907Y-56540000D01*
X119760000Y-56540000D01*
X119760000Y-49680000D01*
X126742560Y-49680000D01*
X126742560Y-49770000D01*
X126786838Y-50005317D01*
X126925910Y-50221441D01*
X127138110Y-50366431D01*
X127205541Y-50380086D01*
X127160853Y-50409946D01*
X126838946Y-50891715D01*
X126725907Y-51460000D01*
X126838946Y-52028285D01*
X127160853Y-52510054D01*
X127501553Y-52737702D01*
X127358642Y-52804817D01*
X126968355Y-53233076D01*
X126798524Y-53643110D01*
X126919845Y-53873000D01*
X128113000Y-53873000D01*
X128113000Y-53853000D01*
X128367000Y-53853000D01*
X128367000Y-53873000D01*
X129560155Y-53873000D01*
X129681476Y-53643110D01*
X129511645Y-53233076D01*
X129121358Y-52804817D01*
X128978447Y-52737702D01*
X129319147Y-52510054D01*
X129641054Y-52028285D01*
X129754093Y-51460000D01*
X129689993Y-51137745D01*
X145681861Y-51137745D01*
X145755995Y-51383864D01*
X146293223Y-51576965D01*
X146863454Y-51549778D01*
X147264005Y-51383864D01*
X147338139Y-51137745D01*
X146510000Y-50309605D01*
X145681861Y-51137745D01*
X129689993Y-51137745D01*
X129641054Y-50891715D01*
X129319147Y-50409946D01*
X129277548Y-50382150D01*
X129325317Y-50373162D01*
X129541441Y-50234090D01*
X129686431Y-50021890D01*
X129708436Y-49913223D01*
X145063035Y-49913223D01*
X145090222Y-50483454D01*
X145256136Y-50884005D01*
X145502255Y-50958139D01*
X146330395Y-50130000D01*
X146689605Y-50130000D01*
X147517745Y-50958139D01*
X147763864Y-50884005D01*
X147956965Y-50346777D01*
X147929778Y-49776546D01*
X147763864Y-49375995D01*
X147517745Y-49301861D01*
X146689605Y-50130000D01*
X146330395Y-50130000D01*
X145502255Y-49301861D01*
X145256136Y-49375995D01*
X145063035Y-49913223D01*
X129708436Y-49913223D01*
X129737440Y-49770000D01*
X129737440Y-48070000D01*
X129693162Y-47834683D01*
X129554090Y-47618559D01*
X129341890Y-47473569D01*
X129090000Y-47422560D01*
X127390000Y-47422560D01*
X127154683Y-47466838D01*
X126938559Y-47605910D01*
X126793569Y-47818110D01*
X126742560Y-48070000D01*
X126742560Y-48160000D01*
X119000000Y-48160000D01*
X118709161Y-48217852D01*
X118462599Y-48382599D01*
X118297852Y-48629161D01*
X118240000Y-48920000D01*
X118240000Y-67437537D01*
X118207808Y-67469673D01*
X118065162Y-67813201D01*
X118064838Y-68185167D01*
X63189259Y-68185167D01*
X62710000Y-67705908D01*
X62710000Y-67131025D01*
X64008581Y-67131025D01*
X64125601Y-67413446D01*
X64789663Y-67665018D01*
X65499448Y-67643314D01*
X66054399Y-67413446D01*
X66171419Y-67131025D01*
X65090000Y-66049605D01*
X64008581Y-67131025D01*
X62710000Y-67131025D01*
X62710000Y-65569663D01*
X63294982Y-65569663D01*
X63316686Y-66279448D01*
X63546554Y-66834399D01*
X63828975Y-66951419D01*
X64910395Y-65870000D01*
X65269605Y-65870000D01*
X66351025Y-66951419D01*
X66633446Y-66834399D01*
X66885018Y-66170337D01*
X66863314Y-65460552D01*
X66633446Y-64905601D01*
X66351025Y-64788581D01*
X65269605Y-65870000D01*
X64910395Y-65870000D01*
X63828975Y-64788581D01*
X63546554Y-64905601D01*
X63294982Y-65569663D01*
X62710000Y-65569663D01*
X62710000Y-64608975D01*
X64008581Y-64608975D01*
X65090000Y-65690395D01*
X66171419Y-64608975D01*
X66054399Y-64326554D01*
X65390337Y-64074982D01*
X64680552Y-64096686D01*
X64125601Y-64326554D01*
X64008581Y-64608975D01*
X62710000Y-64608975D01*
X62710000Y-59650000D01*
X63292560Y-59650000D01*
X63292560Y-61950000D01*
X63336838Y-62185317D01*
X63475910Y-62401441D01*
X63688110Y-62546431D01*
X63940000Y-62597440D01*
X66240000Y-62597440D01*
X66475317Y-62553162D01*
X66691441Y-62414090D01*
X66713070Y-62382434D01*
X110855226Y-62382434D01*
X111103538Y-62983395D01*
X111562927Y-63443586D01*
X112163453Y-63692946D01*
X112813694Y-63693514D01*
X113414655Y-63445202D01*
X113874846Y-62985813D01*
X114124206Y-62385287D01*
X114124774Y-61735046D01*
X113876462Y-61134085D01*
X113417073Y-60673894D01*
X112816547Y-60424534D01*
X112166306Y-60423966D01*
X111565345Y-60672278D01*
X111105154Y-61131667D01*
X110855794Y-61732193D01*
X110855226Y-62382434D01*
X66713070Y-62382434D01*
X66836431Y-62201890D01*
X66887440Y-61950000D01*
X66887440Y-59650000D01*
X66843162Y-59414683D01*
X66704090Y-59198559D01*
X66491890Y-59053569D01*
X66240000Y-59002560D01*
X63940000Y-59002560D01*
X63704683Y-59046838D01*
X63488559Y-59185910D01*
X63343569Y-59398110D01*
X63292560Y-59650000D01*
X62710000Y-59650000D01*
X62710000Y-58400000D01*
X93752560Y-58400000D01*
X93752560Y-59600000D01*
X93796838Y-59835317D01*
X93935910Y-60051441D01*
X94093958Y-60159431D01*
X93953629Y-60299515D01*
X93765215Y-60753266D01*
X93764786Y-61244579D01*
X93952408Y-61698657D01*
X94299515Y-62046371D01*
X94753266Y-62234785D01*
X95244579Y-62235214D01*
X95698657Y-62047592D01*
X96046371Y-61700485D01*
X96234785Y-61246734D01*
X96235214Y-60755421D01*
X96047592Y-60301343D01*
X95904891Y-60158392D01*
X96051441Y-60064090D01*
X96196431Y-59851890D01*
X96247440Y-59600000D01*
X96247440Y-58400000D01*
X96203162Y-58164683D01*
X96064090Y-57948559D01*
X95851890Y-57803569D01*
X95600000Y-57752560D01*
X94400000Y-57752560D01*
X94164683Y-57796838D01*
X93948559Y-57935910D01*
X93803569Y-58148110D01*
X93752560Y-58400000D01*
X62710000Y-58400000D01*
X62710000Y-44840000D01*
X63945907Y-44840000D01*
X64058946Y-45408285D01*
X64380853Y-45890054D01*
X64710026Y-46110000D01*
X64380853Y-46329946D01*
X64058946Y-46811715D01*
X63945907Y-47380000D01*
X64058946Y-47948285D01*
X64380853Y-48430054D01*
X64710026Y-48650000D01*
X64380853Y-48869946D01*
X64058946Y-49351715D01*
X63945907Y-49920000D01*
X64058946Y-50488285D01*
X64380853Y-50970054D01*
X64710026Y-51190000D01*
X64380853Y-51409946D01*
X64058946Y-51891715D01*
X63945907Y-52460000D01*
X64058946Y-53028285D01*
X64380853Y-53510054D01*
X64710026Y-53730000D01*
X64380853Y-53949946D01*
X64058946Y-54431715D01*
X63945907Y-55000000D01*
X64058946Y-55568285D01*
X64380853Y-56050054D01*
X64862622Y-56371961D01*
X65430907Y-56485000D01*
X65489093Y-56485000D01*
X66057378Y-56371961D01*
X66539147Y-56050054D01*
X66539971Y-56048821D01*
X66546838Y-56085317D01*
X66685910Y-56301441D01*
X66898110Y-56446431D01*
X67150000Y-56497440D01*
X68850000Y-56497440D01*
X69085317Y-56453162D01*
X69301441Y-56314090D01*
X69446431Y-56101890D01*
X69497440Y-55850000D01*
X69497440Y-54150000D01*
X69453162Y-53914683D01*
X69314090Y-53698559D01*
X69101890Y-53553569D01*
X69034459Y-53539914D01*
X69079147Y-53510054D01*
X69401054Y-53028285D01*
X69514093Y-52460000D01*
X69506692Y-52422789D01*
X70365920Y-52422789D01*
X70690250Y-53207727D01*
X71290274Y-53808800D01*
X72074645Y-54134499D01*
X72923949Y-54135240D01*
X73708887Y-53810910D01*
X74006439Y-53513877D01*
X88164568Y-53513877D01*
X88324335Y-53832632D01*
X89115057Y-54142595D01*
X89964206Y-54126367D01*
X90673345Y-53832632D01*
X90833112Y-53513877D01*
X89498840Y-52179605D01*
X88164568Y-53513877D01*
X74006439Y-53513877D01*
X74309960Y-53210886D01*
X74635659Y-52426515D01*
X74636365Y-51616217D01*
X87356245Y-51616217D01*
X87372473Y-52465366D01*
X87666208Y-53174505D01*
X87984963Y-53334272D01*
X89319235Y-52000000D01*
X89678445Y-52000000D01*
X91012717Y-53334272D01*
X91331472Y-53174505D01*
X91641435Y-52383783D01*
X91625207Y-51534634D01*
X91331472Y-50825495D01*
X91012717Y-50665728D01*
X89678445Y-52000000D01*
X89319235Y-52000000D01*
X87984963Y-50665728D01*
X87666208Y-50825495D01*
X87356245Y-51616217D01*
X74636365Y-51616217D01*
X74636400Y-51577211D01*
X74312070Y-50792273D01*
X74006455Y-50486123D01*
X88164568Y-50486123D01*
X89498840Y-51820395D01*
X90833112Y-50486123D01*
X90673345Y-50167368D01*
X89882623Y-49857405D01*
X89033474Y-49873633D01*
X88324335Y-50167368D01*
X88164568Y-50486123D01*
X74006455Y-50486123D01*
X73712046Y-50191200D01*
X72927675Y-49865501D01*
X72078371Y-49864760D01*
X71293433Y-50189090D01*
X70692360Y-50789114D01*
X70366661Y-51573485D01*
X70365920Y-52422789D01*
X69506692Y-52422789D01*
X69401054Y-51891715D01*
X69079147Y-51409946D01*
X68749974Y-51190000D01*
X69079147Y-50970054D01*
X69401054Y-50488285D01*
X69514093Y-49920000D01*
X69401054Y-49351715D01*
X69342963Y-49264775D01*
X104114803Y-49264775D01*
X104287233Y-49682086D01*
X104606235Y-50001645D01*
X105023244Y-50174803D01*
X105474775Y-50175197D01*
X105892086Y-50002767D01*
X106211645Y-49683765D01*
X106384803Y-49266756D01*
X106385119Y-48904883D01*
X106744775Y-48905197D01*
X107162086Y-48732767D01*
X107481645Y-48413765D01*
X107654803Y-47996756D01*
X107655197Y-47545225D01*
X107482767Y-47127914D01*
X107185373Y-46830000D01*
X145062560Y-46830000D01*
X145062560Y-48430000D01*
X145106838Y-48665317D01*
X145245910Y-48881441D01*
X145458110Y-49026431D01*
X145696201Y-49074646D01*
X145681861Y-49122255D01*
X146510000Y-49950395D01*
X147298560Y-49161834D01*
X152014543Y-49161834D01*
X152414853Y-50130658D01*
X153155443Y-50872542D01*
X154123567Y-51274542D01*
X155171834Y-51275457D01*
X156140658Y-50875147D01*
X156882542Y-50134557D01*
X157284542Y-49166433D01*
X157285457Y-48118166D01*
X156885147Y-47149342D01*
X156144557Y-46407458D01*
X155176433Y-46005458D01*
X154128166Y-46004543D01*
X153159342Y-46404853D01*
X152417458Y-47145443D01*
X152015458Y-48113567D01*
X152014543Y-49161834D01*
X147298560Y-49161834D01*
X147338139Y-49122255D01*
X147323855Y-49074833D01*
X147545317Y-49033162D01*
X147761441Y-48894090D01*
X147906431Y-48681890D01*
X147957440Y-48430000D01*
X147957440Y-46830000D01*
X147913162Y-46594683D01*
X147774090Y-46378559D01*
X147561890Y-46233569D01*
X147310000Y-46182560D01*
X145710000Y-46182560D01*
X145474683Y-46226838D01*
X145258559Y-46365910D01*
X145113569Y-46578110D01*
X145062560Y-46830000D01*
X107185373Y-46830000D01*
X107163765Y-46808355D01*
X106746756Y-46635197D01*
X106295225Y-46634803D01*
X106251939Y-46652689D01*
X106226250Y-46627000D01*
X105377000Y-46627000D01*
X105377000Y-47476250D01*
X105402448Y-47501698D01*
X105385197Y-47543244D01*
X105384881Y-47905117D01*
X105025225Y-47904803D01*
X104607914Y-48077233D01*
X104288355Y-48396235D01*
X104115197Y-48813244D01*
X104114803Y-49264775D01*
X69342963Y-49264775D01*
X69079147Y-48869946D01*
X68749974Y-48650000D01*
X69079147Y-48430054D01*
X69401054Y-47948285D01*
X69514093Y-47380000D01*
X69401054Y-46811715D01*
X69383705Y-46785750D01*
X104115000Y-46785750D01*
X104115000Y-47126310D01*
X104211673Y-47359699D01*
X104390302Y-47538327D01*
X104623691Y-47635000D01*
X104964250Y-47635000D01*
X105123000Y-47476250D01*
X105123000Y-46627000D01*
X104273750Y-46627000D01*
X104115000Y-46785750D01*
X69383705Y-46785750D01*
X69079147Y-46329946D01*
X68749974Y-46110000D01*
X69079147Y-45890054D01*
X69090081Y-45873690D01*
X104115000Y-45873690D01*
X104115000Y-46214250D01*
X104273750Y-46373000D01*
X105123000Y-46373000D01*
X105123000Y-45523750D01*
X105377000Y-45523750D01*
X105377000Y-46373000D01*
X106226250Y-46373000D01*
X106385000Y-46214250D01*
X106385000Y-45873690D01*
X106288327Y-45640301D01*
X106109698Y-45461673D01*
X105876309Y-45365000D01*
X105535750Y-45365000D01*
X105377000Y-45523750D01*
X105123000Y-45523750D01*
X104964250Y-45365000D01*
X104623691Y-45365000D01*
X104390302Y-45461673D01*
X104211673Y-45640301D01*
X104115000Y-45873690D01*
X69090081Y-45873690D01*
X69401054Y-45408285D01*
X69514093Y-44840000D01*
X69401054Y-44271715D01*
X69079147Y-43789946D01*
X68749974Y-43570000D01*
X69079147Y-43350054D01*
X69401054Y-42868285D01*
X69514093Y-42300000D01*
X69401054Y-41731715D01*
X69079147Y-41249946D01*
X68597378Y-40928039D01*
X68029093Y-40815000D01*
X67970907Y-40815000D01*
X67402622Y-40928039D01*
X66920853Y-41249946D01*
X66731655Y-41533101D01*
X66731645Y-41533076D01*
X66341358Y-41104817D01*
X65816892Y-40858514D01*
X65587000Y-40979181D01*
X65587000Y-42173000D01*
X65607000Y-42173000D01*
X65607000Y-42427000D01*
X65587000Y-42427000D01*
X65587000Y-42447000D01*
X65333000Y-42447000D01*
X65333000Y-42427000D01*
X64139845Y-42427000D01*
X64018524Y-42656890D01*
X64188355Y-43066924D01*
X64578642Y-43495183D01*
X64721553Y-43562298D01*
X64380853Y-43789946D01*
X64058946Y-44271715D01*
X63945907Y-44840000D01*
X62710000Y-44840000D01*
X62710000Y-41943110D01*
X64018524Y-41943110D01*
X64139845Y-42173000D01*
X65333000Y-42173000D01*
X65333000Y-40979181D01*
X65103108Y-40858514D01*
X64578642Y-41104817D01*
X64188355Y-41533076D01*
X64018524Y-41943110D01*
X62710000Y-41943110D01*
X62710000Y-38603694D01*
X118596486Y-38603694D01*
X118844798Y-39204655D01*
X119304187Y-39664846D01*
X119904713Y-39914206D01*
X120554954Y-39914774D01*
X121155915Y-39666462D01*
X121616106Y-39207073D01*
X121865466Y-38606547D01*
X121865468Y-38603694D01*
X128756486Y-38603694D01*
X129004798Y-39204655D01*
X129464187Y-39664846D01*
X130064713Y-39914206D01*
X130714954Y-39914774D01*
X131315915Y-39666462D01*
X131776106Y-39207073D01*
X131965924Y-38749940D01*
X147802360Y-38749940D01*
X147802360Y-42250060D01*
X147846638Y-42485377D01*
X147985710Y-42701501D01*
X148197910Y-42846491D01*
X148449800Y-42897500D01*
X151949920Y-42897500D01*
X152185237Y-42853222D01*
X152401361Y-42714150D01*
X152546351Y-42501950D01*
X152597360Y-42250060D01*
X152597360Y-40785750D01*
X153814280Y-40785750D01*
X153814280Y-42376370D01*
X153910953Y-42609759D01*
X154089582Y-42788387D01*
X154322971Y-42885060D01*
X155913590Y-42885060D01*
X156072340Y-42726310D01*
X156072340Y-40627000D01*
X156326340Y-40627000D01*
X156326340Y-42726310D01*
X156485090Y-42885060D01*
X158075709Y-42885060D01*
X158309098Y-42788387D01*
X158487727Y-42609759D01*
X158584400Y-42376370D01*
X158584400Y-40785750D01*
X158425650Y-40627000D01*
X156326340Y-40627000D01*
X156072340Y-40627000D01*
X153973030Y-40627000D01*
X153814280Y-40785750D01*
X152597360Y-40785750D01*
X152597360Y-38749940D01*
X152553082Y-38514623D01*
X152414010Y-38298499D01*
X152249450Y-38186060D01*
X152913850Y-38186060D01*
X153072600Y-38027310D01*
X153072600Y-35928000D01*
X153326600Y-35928000D01*
X153326600Y-38027310D01*
X153485350Y-38186060D01*
X154151272Y-38186060D01*
X154089582Y-38211613D01*
X153910953Y-38390241D01*
X153814280Y-38623630D01*
X153814280Y-40214250D01*
X153973030Y-40373000D01*
X156072340Y-40373000D01*
X156072340Y-38273690D01*
X156326340Y-38273690D01*
X156326340Y-40373000D01*
X158425650Y-40373000D01*
X158584400Y-40214250D01*
X158584400Y-38623630D01*
X158487727Y-38390241D01*
X158309098Y-38211613D01*
X158075709Y-38114940D01*
X156485090Y-38114940D01*
X156326340Y-38273690D01*
X156072340Y-38273690D01*
X155913590Y-38114940D01*
X155247668Y-38114940D01*
X155309358Y-38089387D01*
X155487987Y-37910759D01*
X155584660Y-37677370D01*
X155584660Y-36086750D01*
X155425910Y-35928000D01*
X153326600Y-35928000D01*
X153072600Y-35928000D01*
X150973290Y-35928000D01*
X150814540Y-36086750D01*
X150814540Y-37677370D01*
X150911213Y-37910759D01*
X151089842Y-38089387D01*
X151121500Y-38102500D01*
X148449800Y-38102500D01*
X148214483Y-38146778D01*
X147998359Y-38285850D01*
X147853369Y-38498050D01*
X147802360Y-38749940D01*
X131965924Y-38749940D01*
X132025466Y-38606547D01*
X132026034Y-37956306D01*
X131777722Y-37355345D01*
X131318333Y-36895154D01*
X130717807Y-36645794D01*
X130067566Y-36645226D01*
X129466605Y-36893538D01*
X129006414Y-37352927D01*
X128757054Y-37953453D01*
X128756486Y-38603694D01*
X121865468Y-38603694D01*
X121866034Y-37956306D01*
X121617722Y-37355345D01*
X121158333Y-36895154D01*
X120557807Y-36645794D01*
X119907566Y-36645226D01*
X119306605Y-36893538D01*
X118846414Y-37352927D01*
X118597054Y-37953453D01*
X118596486Y-38603694D01*
X62710000Y-38603694D01*
X62710000Y-32580000D01*
X63292560Y-32580000D01*
X63292560Y-34880000D01*
X63336838Y-35115317D01*
X63475910Y-35331441D01*
X63688110Y-35476431D01*
X63940000Y-35527440D01*
X66240000Y-35527440D01*
X66475317Y-35483162D01*
X66691441Y-35344090D01*
X66836431Y-35131890D01*
X66887440Y-34880000D01*
X66887440Y-33924630D01*
X150814540Y-33924630D01*
X150814540Y-35515250D01*
X150973290Y-35674000D01*
X153072600Y-35674000D01*
X153072600Y-33574690D01*
X153326600Y-33574690D01*
X153326600Y-35674000D01*
X155425910Y-35674000D01*
X155584660Y-35515250D01*
X155584660Y-34535750D01*
X157965000Y-34535750D01*
X157965000Y-35276309D01*
X158061673Y-35509698D01*
X158240301Y-35688327D01*
X158473690Y-35785000D01*
X159214250Y-35785000D01*
X159373000Y-35626250D01*
X159373000Y-34377000D01*
X159627000Y-34377000D01*
X159627000Y-35626250D01*
X159785750Y-35785000D01*
X160526310Y-35785000D01*
X160759699Y-35688327D01*
X160938327Y-35509698D01*
X161035000Y-35276309D01*
X161035000Y-34535750D01*
X160876250Y-34377000D01*
X159627000Y-34377000D01*
X159373000Y-34377000D01*
X158123750Y-34377000D01*
X157965000Y-34535750D01*
X155584660Y-34535750D01*
X155584660Y-33924630D01*
X155487987Y-33691241D01*
X155309358Y-33512613D01*
X155075969Y-33415940D01*
X153485350Y-33415940D01*
X153326600Y-33574690D01*
X153072600Y-33574690D01*
X152913850Y-33415940D01*
X151323231Y-33415940D01*
X151089842Y-33512613D01*
X150911213Y-33691241D01*
X150814540Y-33924630D01*
X66887440Y-33924630D01*
X66887440Y-32580000D01*
X66843162Y-32344683D01*
X66704090Y-32128559D01*
X66536415Y-32013991D01*
X157964735Y-32013991D01*
X158197932Y-32578371D01*
X158375092Y-32755841D01*
X158240301Y-32811673D01*
X158061673Y-32990302D01*
X157965000Y-33223691D01*
X157965000Y-33964250D01*
X158123750Y-34123000D01*
X159373000Y-34123000D01*
X159373000Y-34103000D01*
X159627000Y-34103000D01*
X159627000Y-34123000D01*
X160876250Y-34123000D01*
X161035000Y-33964250D01*
X161035000Y-33223691D01*
X160938327Y-32990302D01*
X160759699Y-32811673D01*
X160625006Y-32755881D01*
X160800551Y-32580643D01*
X161034733Y-32016670D01*
X161035265Y-31406009D01*
X160802068Y-30841629D01*
X160495975Y-30535000D01*
X160526310Y-30535000D01*
X160759699Y-30438327D01*
X160938327Y-30259698D01*
X161035000Y-30026309D01*
X161035000Y-29285750D01*
X160876250Y-29127000D01*
X159627000Y-29127000D01*
X159627000Y-29147000D01*
X159373000Y-29147000D01*
X159373000Y-29127000D01*
X158123750Y-29127000D01*
X157965000Y-29285750D01*
X157965000Y-30026309D01*
X158061673Y-30259698D01*
X158240301Y-30438327D01*
X158473690Y-30535000D01*
X158504339Y-30535000D01*
X158199449Y-30839357D01*
X157965267Y-31403330D01*
X157964735Y-32013991D01*
X66536415Y-32013991D01*
X66491890Y-31983569D01*
X66240000Y-31932560D01*
X63940000Y-31932560D01*
X63704683Y-31976838D01*
X63488559Y-32115910D01*
X63343569Y-32328110D01*
X63292560Y-32580000D01*
X62710000Y-32580000D01*
X62710000Y-30452340D01*
X72727265Y-30452340D01*
X73045501Y-30906203D01*
X74306434Y-31432936D01*
X75672956Y-31437035D01*
X76901346Y-30932532D01*
X94877073Y-30932532D01*
X94975736Y-31199387D01*
X95585461Y-31425908D01*
X96235460Y-31401856D01*
X96724264Y-31199387D01*
X96822927Y-30932532D01*
X95850000Y-29959605D01*
X94877073Y-30932532D01*
X76901346Y-30932532D01*
X76937027Y-30917878D01*
X76954499Y-30906203D01*
X77272735Y-30452340D01*
X75000000Y-28179605D01*
X72727265Y-30452340D01*
X62710000Y-30452340D01*
X62710000Y-29013501D01*
X63304691Y-29013501D01*
X63575868Y-29669800D01*
X64077559Y-30172367D01*
X64733384Y-30444689D01*
X65443501Y-30445309D01*
X66099800Y-30174132D01*
X66602367Y-29672441D01*
X66874689Y-29016616D01*
X66874989Y-28672956D01*
X71562965Y-28672956D01*
X72082122Y-29937027D01*
X72093797Y-29954499D01*
X72547660Y-30272735D01*
X74820395Y-28000000D01*
X75179605Y-28000000D01*
X77452340Y-30272735D01*
X77906203Y-29954499D01*
X78089603Y-29515461D01*
X94204092Y-29515461D01*
X94228144Y-30165460D01*
X94430613Y-30654264D01*
X94697468Y-30752927D01*
X95670395Y-29780000D01*
X96029605Y-29780000D01*
X97002532Y-30752927D01*
X97269387Y-30654264D01*
X97495908Y-30044539D01*
X97471856Y-29394540D01*
X97269387Y-28905736D01*
X97002532Y-28807073D01*
X96029605Y-29780000D01*
X95670395Y-29780000D01*
X94697468Y-28807073D01*
X94430613Y-28905736D01*
X94204092Y-29515461D01*
X78089603Y-29515461D01*
X78432936Y-28693566D01*
X78433134Y-28627468D01*
X94877073Y-28627468D01*
X95850000Y-29600395D01*
X96670395Y-28780000D01*
X99202560Y-28780000D01*
X99202560Y-30780000D01*
X99246838Y-31015317D01*
X99385910Y-31231441D01*
X99598110Y-31376431D01*
X99850000Y-31427440D01*
X101850000Y-31427440D01*
X102085317Y-31383162D01*
X102301441Y-31244090D01*
X102446431Y-31031890D01*
X102466551Y-30932532D01*
X119087073Y-30932532D01*
X119185736Y-31199387D01*
X119795461Y-31425908D01*
X120445460Y-31401856D01*
X120934264Y-31199387D01*
X121032927Y-30932532D01*
X120060000Y-29959605D01*
X119087073Y-30932532D01*
X102466551Y-30932532D01*
X102497440Y-30780000D01*
X102497440Y-29515461D01*
X118414092Y-29515461D01*
X118438144Y-30165460D01*
X118640613Y-30654264D01*
X118907468Y-30752927D01*
X119880395Y-29780000D01*
X120239605Y-29780000D01*
X121212532Y-30752927D01*
X121479387Y-30654264D01*
X121705908Y-30044539D01*
X121681856Y-29394540D01*
X121479387Y-28905736D01*
X121212532Y-28807073D01*
X120239605Y-29780000D01*
X119880395Y-29780000D01*
X118907468Y-28807073D01*
X118640613Y-28905736D01*
X118414092Y-29515461D01*
X102497440Y-29515461D01*
X102497440Y-28780000D01*
X102468740Y-28627468D01*
X119087073Y-28627468D01*
X120060000Y-29600395D01*
X120880395Y-28780000D01*
X123412560Y-28780000D01*
X123412560Y-30780000D01*
X123456838Y-31015317D01*
X123595910Y-31231441D01*
X123808110Y-31376431D01*
X124060000Y-31427440D01*
X126060000Y-31427440D01*
X126295317Y-31383162D01*
X126511441Y-31244090D01*
X126656431Y-31031890D01*
X126707440Y-30780000D01*
X126707440Y-28780000D01*
X135352560Y-28780000D01*
X135352560Y-30780000D01*
X135396838Y-31015317D01*
X135535910Y-31231441D01*
X135748110Y-31376431D01*
X136000000Y-31427440D01*
X138000000Y-31427440D01*
X138235317Y-31383162D01*
X138451441Y-31244090D01*
X138596431Y-31031890D01*
X138616551Y-30932532D01*
X141027073Y-30932532D01*
X141125736Y-31199387D01*
X141735461Y-31425908D01*
X142385460Y-31401856D01*
X142874264Y-31199387D01*
X142972927Y-30932532D01*
X142000000Y-29959605D01*
X141027073Y-30932532D01*
X138616551Y-30932532D01*
X138647440Y-30780000D01*
X138647440Y-29515461D01*
X140354092Y-29515461D01*
X140378144Y-30165460D01*
X140580613Y-30654264D01*
X140847468Y-30752927D01*
X141820395Y-29780000D01*
X142179605Y-29780000D01*
X143152532Y-30752927D01*
X143419387Y-30654264D01*
X143494404Y-30452340D01*
X145727265Y-30452340D01*
X146045501Y-30906203D01*
X147306434Y-31432936D01*
X148672956Y-31437035D01*
X149937027Y-30917878D01*
X149954499Y-30906203D01*
X150272735Y-30452340D01*
X148000000Y-28179605D01*
X145727265Y-30452340D01*
X143494404Y-30452340D01*
X143645908Y-30044539D01*
X143621856Y-29394540D01*
X143419387Y-28905736D01*
X143152532Y-28807073D01*
X142179605Y-29780000D01*
X141820395Y-29780000D01*
X140847468Y-28807073D01*
X140580613Y-28905736D01*
X140354092Y-29515461D01*
X138647440Y-29515461D01*
X138647440Y-28780000D01*
X138618740Y-28627468D01*
X141027073Y-28627468D01*
X142000000Y-29600395D01*
X142927439Y-28672956D01*
X144562965Y-28672956D01*
X145082122Y-29937027D01*
X145093797Y-29954499D01*
X145547660Y-30272735D01*
X147820395Y-28000000D01*
X148179605Y-28000000D01*
X150452340Y-30272735D01*
X150906203Y-29954499D01*
X151432936Y-28693566D01*
X151437035Y-27327044D01*
X151205788Y-26763991D01*
X157964735Y-26763991D01*
X158197932Y-27328371D01*
X158375092Y-27505841D01*
X158240301Y-27561673D01*
X158061673Y-27740302D01*
X157965000Y-27973691D01*
X157965000Y-28714250D01*
X158123750Y-28873000D01*
X159373000Y-28873000D01*
X159373000Y-28853000D01*
X159627000Y-28853000D01*
X159627000Y-28873000D01*
X160876250Y-28873000D01*
X161035000Y-28714250D01*
X161035000Y-27973691D01*
X160938327Y-27740302D01*
X160759699Y-27561673D01*
X160625006Y-27505881D01*
X160800551Y-27330643D01*
X161034733Y-26766670D01*
X161035265Y-26156009D01*
X160802068Y-25591629D01*
X160370643Y-25159449D01*
X159806670Y-24925267D01*
X159196009Y-24924735D01*
X158631629Y-25157932D01*
X158199449Y-25589357D01*
X157965267Y-26153330D01*
X157964735Y-26763991D01*
X151205788Y-26763991D01*
X150917878Y-26062973D01*
X150906203Y-26045501D01*
X150452340Y-25727265D01*
X148179605Y-28000000D01*
X147820395Y-28000000D01*
X145547660Y-25727265D01*
X145093797Y-26045501D01*
X144567064Y-27306434D01*
X144562965Y-28672956D01*
X142927439Y-28672956D01*
X142972927Y-28627468D01*
X142874264Y-28360613D01*
X142264539Y-28134092D01*
X141614540Y-28158144D01*
X141125736Y-28360613D01*
X141027073Y-28627468D01*
X138618740Y-28627468D01*
X138603162Y-28544683D01*
X138464090Y-28328559D01*
X138251890Y-28183569D01*
X138000000Y-28132560D01*
X136000000Y-28132560D01*
X135764683Y-28176838D01*
X135548559Y-28315910D01*
X135403569Y-28528110D01*
X135352560Y-28780000D01*
X126707440Y-28780000D01*
X126663162Y-28544683D01*
X126524090Y-28328559D01*
X126311890Y-28183569D01*
X126060000Y-28132560D01*
X124060000Y-28132560D01*
X123824683Y-28176838D01*
X123608559Y-28315910D01*
X123463569Y-28528110D01*
X123412560Y-28780000D01*
X120880395Y-28780000D01*
X121032927Y-28627468D01*
X120934264Y-28360613D01*
X120324539Y-28134092D01*
X119674540Y-28158144D01*
X119185736Y-28360613D01*
X119087073Y-28627468D01*
X102468740Y-28627468D01*
X102453162Y-28544683D01*
X102314090Y-28328559D01*
X102101890Y-28183569D01*
X101850000Y-28132560D01*
X99850000Y-28132560D01*
X99614683Y-28176838D01*
X99398559Y-28315910D01*
X99253569Y-28528110D01*
X99202560Y-28780000D01*
X96670395Y-28780000D01*
X96822927Y-28627468D01*
X96724264Y-28360613D01*
X96114539Y-28134092D01*
X95464540Y-28158144D01*
X94975736Y-28360613D01*
X94877073Y-28627468D01*
X78433134Y-28627468D01*
X78437035Y-27327044D01*
X78332984Y-27073694D01*
X103706486Y-27073694D01*
X103954798Y-27674655D01*
X104414187Y-28134846D01*
X105014713Y-28384206D01*
X105664954Y-28384774D01*
X106265915Y-28136462D01*
X106726106Y-27677073D01*
X106975466Y-27076547D01*
X106975468Y-27073694D01*
X113866486Y-27073694D01*
X114114798Y-27674655D01*
X114574187Y-28134846D01*
X115174713Y-28384206D01*
X115824954Y-28384774D01*
X116425915Y-28136462D01*
X116886106Y-27677073D01*
X117135466Y-27076547D01*
X117136034Y-26426306D01*
X116887722Y-25825345D01*
X116428333Y-25365154D01*
X115827807Y-25115794D01*
X115177566Y-25115226D01*
X114576605Y-25363538D01*
X114116414Y-25822927D01*
X113867054Y-26423453D01*
X113866486Y-27073694D01*
X106975468Y-27073694D01*
X106976034Y-26426306D01*
X106727722Y-25825345D01*
X106268333Y-25365154D01*
X105667807Y-25115794D01*
X105017566Y-25115226D01*
X104416605Y-25363538D01*
X103956414Y-25822927D01*
X103707054Y-26423453D01*
X103706486Y-27073694D01*
X78332984Y-27073694D01*
X77917878Y-26062973D01*
X77906203Y-26045501D01*
X77452340Y-25727265D01*
X75179605Y-28000000D01*
X74820395Y-28000000D01*
X72547660Y-25727265D01*
X72093797Y-26045501D01*
X71567064Y-27306434D01*
X71562965Y-28672956D01*
X66874989Y-28672956D01*
X66875309Y-28306499D01*
X66604132Y-27650200D01*
X66102441Y-27147633D01*
X65446616Y-26875311D01*
X64736499Y-26874691D01*
X64080200Y-27145868D01*
X63577633Y-27647559D01*
X63305311Y-28303384D01*
X63304691Y-29013501D01*
X62710000Y-29013501D01*
X62710000Y-24710000D01*
X73969035Y-24710000D01*
X73062973Y-25082122D01*
X73062973Y-25082122D01*
G37*
X73062973Y-25082122D02*
X73045501Y-25093797D01*
X72727265Y-25547660D01*
X75000000Y-27820395D01*
X77272735Y-25547660D01*
X76954499Y-25093797D01*
X76035737Y-24710000D01*
X146969035Y-24710000D01*
X146062973Y-25082122D01*
X146045501Y-25093797D01*
X145727265Y-25547660D01*
X148000000Y-27820395D01*
X150272735Y-25547660D01*
X149954499Y-25093797D01*
X149035737Y-24710000D01*
X161290000Y-24710000D01*
X161290000Y-83290000D01*
X149030965Y-83290000D01*
X149937027Y-82917878D01*
X149954499Y-82906203D01*
X150272735Y-82452340D01*
X148000000Y-80179605D01*
X145727265Y-82452340D01*
X146045501Y-82906203D01*
X146964263Y-83290000D01*
X83030965Y-83290000D01*
X83937027Y-82917878D01*
X83954499Y-82906203D01*
X84272735Y-82452340D01*
X82000000Y-80179605D01*
X79727265Y-82452340D01*
X80045501Y-82906203D01*
X80964263Y-83290000D01*
X64210000Y-83290000D01*
X64210000Y-82235000D01*
X66064250Y-82235000D01*
X66223000Y-82076250D01*
X66223000Y-79747000D01*
X66203000Y-79747000D01*
X66203000Y-79493000D01*
X66223000Y-79493000D01*
X66223000Y-77163750D01*
X66064250Y-77005000D01*
X64210000Y-77005000D01*
X64210000Y-74995000D01*
X66064250Y-74995000D01*
X66223000Y-74836250D01*
X66223000Y-72507000D01*
X66203000Y-72507000D01*
X66203000Y-72253000D01*
X66223000Y-72253000D01*
X66223000Y-70679336D01*
X66310542Y-70679336D01*
X66336161Y-71289460D01*
X66477000Y-71629475D01*
X66477000Y-72253000D01*
X66999177Y-72253000D01*
X66956446Y-72379841D01*
X67083605Y-72507000D01*
X66477000Y-72507000D01*
X66477000Y-72764359D01*
X66310542Y-73219336D01*
X66336161Y-73829460D01*
X66477000Y-74169475D01*
X66477000Y-74836250D01*
X66635750Y-74995000D01*
X66691041Y-74995000D01*
X66556449Y-75129357D01*
X66322267Y-75693330D01*
X66321735Y-76303991D01*
X66554932Y-76868371D01*
X66691322Y-77005000D01*
X66635750Y-77005000D01*
X66477000Y-77163750D01*
X66477000Y-77844359D01*
X66310542Y-78299336D01*
X66336161Y-78909460D01*
X66477000Y-79249475D01*
X66477000Y-79493000D01*
X67083605Y-79493000D01*
X66956446Y-79620159D01*
X66999177Y-79747000D01*
X66477000Y-79747000D01*
X66477000Y-80384359D01*
X66310542Y-80839336D01*
X66336161Y-81449460D01*
X66477000Y-81789475D01*
X66477000Y-82076250D01*
X66635750Y-82235000D01*
X66802172Y-82235000D01*
X66841890Y-82274718D01*
X66881608Y-82235000D01*
X66981659Y-82235000D01*
X67042852Y-82416643D01*
X67616336Y-82626458D01*
X68226460Y-82600839D01*
X68671148Y-82416643D01*
X68732341Y-82235000D01*
X68832392Y-82235000D01*
X68872110Y-82274718D01*
X68911828Y-82235000D01*
X68976309Y-82235000D01*
X69209698Y-82138327D01*
X69388327Y-81959699D01*
X69485000Y-81726310D01*
X69485000Y-80672956D01*
X78562965Y-80672956D01*
X79082122Y-81937027D01*
X79093797Y-81954499D01*
X79547660Y-82272735D01*
X81820395Y-80000000D01*
X82179605Y-80000000D01*
X84452340Y-82272735D01*
X84906203Y-81954499D01*
X85432936Y-80693566D01*
X85432997Y-80672956D01*
X144562965Y-80672956D01*
X145082122Y-81937027D01*
X145093797Y-81954499D01*
X145547660Y-82272735D01*
X147820395Y-80000000D01*
X148179605Y-80000000D01*
X150452340Y-82272735D01*
X150906203Y-81954499D01*
X150976694Y-81785750D01*
X157965000Y-81785750D01*
X157965000Y-82526309D01*
X158061673Y-82759698D01*
X158240301Y-82938327D01*
X158473690Y-83035000D01*
X159214250Y-83035000D01*
X159373000Y-82876250D01*
X159373000Y-81627000D01*
X159627000Y-81627000D01*
X159627000Y-82876250D01*
X159785750Y-83035000D01*
X160526310Y-83035000D01*
X160759699Y-82938327D01*
X160938327Y-82759698D01*
X161035000Y-82526309D01*
X161035000Y-81785750D01*
X160876250Y-81627000D01*
X159627000Y-81627000D01*
X159373000Y-81627000D01*
X158123750Y-81627000D01*
X157965000Y-81785750D01*
X150976694Y-81785750D01*
X151432936Y-80693566D01*
X151437035Y-79327044D01*
X151411139Y-79263991D01*
X157964735Y-79263991D01*
X158197932Y-79828371D01*
X158375092Y-80005841D01*
X158240301Y-80061673D01*
X158061673Y-80240302D01*
X157965000Y-80473691D01*
X157965000Y-81214250D01*
X158123750Y-81373000D01*
X159373000Y-81373000D01*
X159373000Y-81353000D01*
X159627000Y-81353000D01*
X159627000Y-81373000D01*
X160876250Y-81373000D01*
X161035000Y-81214250D01*
X161035000Y-80473691D01*
X160938327Y-80240302D01*
X160759699Y-80061673D01*
X160625006Y-80005881D01*
X160800551Y-79830643D01*
X161034733Y-79266670D01*
X161035265Y-78656009D01*
X160802068Y-78091629D01*
X160370643Y-77659449D01*
X159806670Y-77425267D01*
X159196009Y-77424735D01*
X158631629Y-77657932D01*
X158199449Y-78089357D01*
X157965267Y-78653330D01*
X157964735Y-79263991D01*
X151411139Y-79263991D01*
X150917878Y-78062973D01*
X150906203Y-78045501D01*
X150452340Y-77727265D01*
X148179605Y-80000000D01*
X147820395Y-80000000D01*
X145547660Y-77727265D01*
X145093797Y-78045501D01*
X144567064Y-79306434D01*
X144562965Y-80672956D01*
X85432997Y-80672956D01*
X85437035Y-79327044D01*
X84917878Y-78062973D01*
X84906203Y-78045501D01*
X84452340Y-77727265D01*
X82179605Y-80000000D01*
X81820395Y-80000000D01*
X79547660Y-77727265D01*
X79093797Y-78045501D01*
X78567064Y-79306434D01*
X78562965Y-80672956D01*
X69485000Y-80672956D01*
X69485000Y-79905750D01*
X69326250Y-79747000D01*
X68714823Y-79747000D01*
X68757554Y-79620159D01*
X68630395Y-79493000D01*
X69326250Y-79493000D01*
X69485000Y-79334250D01*
X69485000Y-77547660D01*
X79727265Y-77547660D01*
X82000000Y-79820395D01*
X84272735Y-77547660D01*
X145727265Y-77547660D01*
X148000000Y-79820395D01*
X150272735Y-77547660D01*
X149954499Y-77093797D01*
X148693566Y-76567064D01*
X147327044Y-76562965D01*
X146062973Y-77082122D01*
X146045501Y-77093797D01*
X145727265Y-77547660D01*
X84272735Y-77547660D01*
X83954499Y-77093797D01*
X82693566Y-76567064D01*
X81327044Y-76562965D01*
X80062973Y-77082122D01*
X80045501Y-77093797D01*
X79727265Y-77547660D01*
X69485000Y-77547660D01*
X69485000Y-77513690D01*
X69388327Y-77280301D01*
X69209698Y-77101673D01*
X69009279Y-77018656D01*
X69157551Y-76870643D01*
X69391733Y-76306670D01*
X69391838Y-76185167D01*
X126664838Y-76185167D01*
X126806883Y-76528943D01*
X127069673Y-76792192D01*
X127413201Y-76934838D01*
X127785167Y-76935162D01*
X128128943Y-76793117D01*
X128162118Y-76760000D01*
X143237537Y-76760000D01*
X143269673Y-76792192D01*
X143613201Y-76934838D01*
X143985167Y-76935162D01*
X144328943Y-76793117D01*
X144592192Y-76530327D01*
X144734838Y-76186799D01*
X144735162Y-75814833D01*
X144593117Y-75471057D01*
X144330327Y-75207808D01*
X143986799Y-75065162D01*
X143614833Y-75064838D01*
X143271057Y-75206883D01*
X143237882Y-75240000D01*
X141435053Y-75240000D01*
X141435162Y-75114833D01*
X141293117Y-74771057D01*
X141030327Y-74507808D01*
X140686799Y-74365162D01*
X140314833Y-74364838D01*
X140299865Y-74371023D01*
X140334838Y-74286799D01*
X140334946Y-74161834D01*
X152014543Y-74161834D01*
X152414853Y-75130658D01*
X153155443Y-75872542D01*
X154123567Y-76274542D01*
X155171834Y-76275457D01*
X156140658Y-75875147D01*
X156882542Y-75134557D01*
X157284542Y-74166433D01*
X157285457Y-73118166D01*
X156885147Y-72149342D01*
X156144557Y-71407458D01*
X155176433Y-71005458D01*
X154128166Y-71004543D01*
X153159342Y-71404853D01*
X152417458Y-72145443D01*
X152015458Y-73113567D01*
X152014543Y-74161834D01*
X140334946Y-74161834D01*
X140335162Y-73914833D01*
X140193117Y-73571057D01*
X139930327Y-73307808D01*
X139586799Y-73165162D01*
X139214833Y-73164838D01*
X138871057Y-73306883D01*
X138837882Y-73340000D01*
X129062463Y-73340000D01*
X129030327Y-73307808D01*
X128686799Y-73165162D01*
X128314833Y-73164838D01*
X127971057Y-73306883D01*
X127707808Y-73569673D01*
X127565162Y-73913201D01*
X127564838Y-74285167D01*
X127706883Y-74628943D01*
X127969673Y-74892192D01*
X128313201Y-75034838D01*
X128597598Y-75035086D01*
X128565162Y-75113201D01*
X128565052Y-75240000D01*
X128162463Y-75240000D01*
X128130327Y-75207808D01*
X127786799Y-75065162D01*
X127414833Y-75064838D01*
X127071057Y-75206883D01*
X126807808Y-75469673D01*
X126665162Y-75813201D01*
X126664838Y-76185167D01*
X69391838Y-76185167D01*
X69392265Y-75696009D01*
X69159068Y-75131629D01*
X69009113Y-74981412D01*
X69209698Y-74898327D01*
X69388327Y-74719699D01*
X69485000Y-74486310D01*
X69485000Y-72665750D01*
X69361684Y-72542434D01*
X110855226Y-72542434D01*
X111103538Y-73143395D01*
X111562927Y-73603586D01*
X112163453Y-73852946D01*
X112813694Y-73853514D01*
X113414655Y-73605202D01*
X113874846Y-73145813D01*
X114124206Y-72545287D01*
X114124774Y-71895046D01*
X113876462Y-71294085D01*
X113417073Y-70833894D01*
X112816547Y-70584534D01*
X112166306Y-70583966D01*
X111565345Y-70832278D01*
X111105154Y-71291667D01*
X110855794Y-71892193D01*
X110855226Y-72542434D01*
X69361684Y-72542434D01*
X69326250Y-72507000D01*
X68630395Y-72507000D01*
X68757554Y-72379841D01*
X68714823Y-72253000D01*
X69326250Y-72253000D01*
X69485000Y-72094250D01*
X69485000Y-70273690D01*
X69388327Y-70040301D01*
X69209698Y-69861673D01*
X68976309Y-69765000D01*
X68911828Y-69765000D01*
X68872110Y-69725282D01*
X68832392Y-69765000D01*
X68732341Y-69765000D01*
X68671148Y-69583357D01*
X68566764Y-69545167D01*
X119364838Y-69545167D01*
X119506883Y-69888943D01*
X119769673Y-70152192D01*
X120113201Y-70294838D01*
X120485167Y-70295162D01*
X120828943Y-70153117D01*
X120862118Y-70120000D01*
X143197520Y-70120000D01*
X143219673Y-70142192D01*
X143563201Y-70284838D01*
X143935167Y-70285162D01*
X144278943Y-70143117D01*
X144542192Y-69880327D01*
X144684838Y-69536799D01*
X144685162Y-69164833D01*
X144543117Y-68821057D01*
X144280327Y-68557808D01*
X143936799Y-68415162D01*
X143564833Y-68414838D01*
X143221057Y-68556883D01*
X143177865Y-68600000D01*
X133590000Y-68600000D01*
X133590000Y-67750000D01*
X145727560Y-67750000D01*
X145727560Y-68950000D01*
X145771838Y-69185317D01*
X145910910Y-69401441D01*
X146068958Y-69509431D01*
X145928629Y-69649515D01*
X145740215Y-70103266D01*
X145739786Y-70594579D01*
X145927408Y-71048657D01*
X146274515Y-71396371D01*
X146728266Y-71584785D01*
X147219579Y-71585214D01*
X147673657Y-71397592D01*
X148021371Y-71050485D01*
X148209785Y-70596734D01*
X148210214Y-70105421D01*
X148022592Y-69651343D01*
X147879891Y-69508392D01*
X148026441Y-69414090D01*
X148171431Y-69201890D01*
X148222440Y-68950000D01*
X148222440Y-67750000D01*
X148210726Y-67687745D01*
X153521861Y-67687745D01*
X153595995Y-67933864D01*
X154133223Y-68126965D01*
X154703454Y-68099778D01*
X155104005Y-67933864D01*
X155178139Y-67687745D01*
X154350000Y-66859605D01*
X153521861Y-67687745D01*
X148210726Y-67687745D01*
X148178162Y-67514683D01*
X148039090Y-67298559D01*
X147826890Y-67153569D01*
X147575000Y-67102560D01*
X146375000Y-67102560D01*
X146139683Y-67146838D01*
X145923559Y-67285910D01*
X145778569Y-67498110D01*
X145727560Y-67750000D01*
X133590000Y-67750000D01*
X133590000Y-66772463D01*
X133622192Y-66740327D01*
X133737256Y-66463223D01*
X152903035Y-66463223D01*
X152930222Y-67033454D01*
X153096136Y-67434005D01*
X153342255Y-67508139D01*
X154170395Y-66680000D01*
X154529605Y-66680000D01*
X155357745Y-67508139D01*
X155603864Y-67434005D01*
X155796965Y-66896777D01*
X155769778Y-66326546D01*
X155603864Y-65925995D01*
X155357745Y-65851861D01*
X154529605Y-66680000D01*
X154170395Y-66680000D01*
X153342255Y-65851861D01*
X153096136Y-65925995D01*
X152903035Y-66463223D01*
X133737256Y-66463223D01*
X133764838Y-66396799D01*
X133765162Y-66024833D01*
X133623117Y-65681057D01*
X133360327Y-65417808D01*
X133016799Y-65275162D01*
X132644833Y-65274838D01*
X132301057Y-65416883D01*
X132037808Y-65679673D01*
X131895162Y-66023201D01*
X131894838Y-66395167D01*
X132036883Y-66738943D01*
X132070000Y-66772118D01*
X132070000Y-68600000D01*
X120862463Y-68600000D01*
X120830327Y-68567808D01*
X120486799Y-68425162D01*
X120114833Y-68424838D01*
X119771057Y-68566883D01*
X119507808Y-68829673D01*
X119365162Y-69173201D01*
X119364838Y-69545167D01*
X68566764Y-69545167D01*
X68097664Y-69373542D01*
X67487540Y-69399161D01*
X67042852Y-69583357D01*
X66981659Y-69765000D01*
X66881608Y-69765000D01*
X66841890Y-69725282D01*
X66802172Y-69765000D01*
X66635750Y-69765000D01*
X66477000Y-69923750D01*
X66477000Y-70224359D01*
X66310542Y-70679336D01*
X66223000Y-70679336D01*
X66223000Y-69923750D01*
X66064250Y-69765000D01*
X64210000Y-69765000D01*
X64210000Y-69500000D01*
X64155954Y-69228295D01*
X64002046Y-68997954D01*
X63189259Y-68185167D01*
X118064838Y-68185167D01*
X118206883Y-68528943D01*
X118469673Y-68792192D01*
X118813201Y-68934838D01*
X119185167Y-68935162D01*
X119528943Y-68793117D01*
X119792192Y-68530327D01*
X119934838Y-68186799D01*
X119935162Y-67814833D01*
X119793117Y-67471057D01*
X119760000Y-67437882D01*
X119760000Y-63114579D01*
X136134786Y-63114579D01*
X136322408Y-63568657D01*
X136669515Y-63916371D01*
X137123266Y-64104785D01*
X137614579Y-64105214D01*
X138068657Y-63917592D01*
X138416371Y-63570485D01*
X138604785Y-63116734D01*
X138605214Y-62625421D01*
X138417592Y-62171343D01*
X138340962Y-62094579D01*
X140439786Y-62094579D01*
X140627408Y-62548657D01*
X140974515Y-62896371D01*
X141428266Y-63084785D01*
X141919579Y-63085214D01*
X142373657Y-62897592D01*
X142516608Y-62754891D01*
X142610910Y-62901441D01*
X142823110Y-63046431D01*
X143075000Y-63097440D01*
X144275000Y-63097440D01*
X144510317Y-63053162D01*
X144726441Y-62914090D01*
X144871431Y-62701890D01*
X144922440Y-62450000D01*
X144922440Y-61250000D01*
X144878162Y-61014683D01*
X144739090Y-60798559D01*
X144526890Y-60653569D01*
X144275000Y-60602560D01*
X143075000Y-60602560D01*
X142839683Y-60646838D01*
X142623559Y-60785910D01*
X142515569Y-60943958D01*
X142375485Y-60803629D01*
X141921734Y-60615215D01*
X141430421Y-60614786D01*
X140976343Y-60802408D01*
X140628629Y-61149515D01*
X140440215Y-61603266D01*
X140439786Y-62094579D01*
X138340962Y-62094579D01*
X138276753Y-62030258D01*
X138329699Y-62008327D01*
X138508327Y-61829698D01*
X138605000Y-61596309D01*
X138605000Y-61155750D01*
X138446250Y-60997000D01*
X137497000Y-60997000D01*
X137497000Y-61017000D01*
X137243000Y-61017000D01*
X137243000Y-60997000D01*
X136293750Y-60997000D01*
X136135000Y-61155750D01*
X136135000Y-61596309D01*
X136231673Y-61829698D01*
X136410301Y-62008327D01*
X136463164Y-62030224D01*
X136323629Y-62169515D01*
X136135215Y-62623266D01*
X136134786Y-63114579D01*
X119760000Y-63114579D01*
X119760000Y-56540000D01*
X126725907Y-56540000D01*
X126838946Y-57108285D01*
X127160853Y-57590054D01*
X127490026Y-57810000D01*
X127160853Y-58029946D01*
X126838946Y-58511715D01*
X126725907Y-59080000D01*
X126838946Y-59648285D01*
X127160853Y-60130054D01*
X127642622Y-60451961D01*
X128210907Y-60565000D01*
X128269093Y-60565000D01*
X128837378Y-60451961D01*
X129319147Y-60130054D01*
X129641054Y-59648285D01*
X129754093Y-59080000D01*
X129641054Y-58511715D01*
X129319147Y-58029946D01*
X128989974Y-57810000D01*
X129319147Y-57590054D01*
X129445444Y-57401036D01*
X131582193Y-57401036D01*
X131612518Y-57891413D01*
X131741836Y-58203617D01*
X131967263Y-58253129D01*
X131851570Y-58368822D01*
X131906397Y-58423649D01*
X131778559Y-58505910D01*
X131633569Y-58718110D01*
X131582560Y-58970000D01*
X131582560Y-60170000D01*
X131626838Y-60405317D01*
X131765910Y-60621441D01*
X131978110Y-60766431D01*
X132230000Y-60817440D01*
X133430000Y-60817440D01*
X133665317Y-60773162D01*
X133881441Y-60634090D01*
X134026431Y-60421890D01*
X134077440Y-60170000D01*
X134077440Y-60143691D01*
X136135000Y-60143691D01*
X136135000Y-60584250D01*
X136293750Y-60743000D01*
X137243000Y-60743000D01*
X137243000Y-59793750D01*
X137497000Y-59793750D01*
X137497000Y-60743000D01*
X138446250Y-60743000D01*
X138605000Y-60584250D01*
X138605000Y-60143691D01*
X138508327Y-59910302D01*
X138329699Y-59731673D01*
X138096310Y-59635000D01*
X137655750Y-59635000D01*
X137497000Y-59793750D01*
X137243000Y-59793750D01*
X137084250Y-59635000D01*
X136643690Y-59635000D01*
X136410301Y-59731673D01*
X136231673Y-59910302D01*
X136135000Y-60143691D01*
X134077440Y-60143691D01*
X134077440Y-58970000D01*
X134033162Y-58734683D01*
X133894090Y-58518559D01*
X133754245Y-58423007D01*
X133808430Y-58368822D01*
X133692737Y-58253129D01*
X133918164Y-58203617D01*
X134077807Y-57738964D01*
X134047482Y-57248587D01*
X133918164Y-56936383D01*
X133692735Y-56886870D01*
X133009605Y-57570000D01*
X133023748Y-57584143D01*
X132844143Y-57763748D01*
X132830000Y-57749605D01*
X132815858Y-57763748D01*
X132636253Y-57584143D01*
X132650395Y-57570000D01*
X131967265Y-56886870D01*
X131741836Y-56936383D01*
X131582193Y-57401036D01*
X129445444Y-57401036D01*
X129641054Y-57108285D01*
X129720821Y-56707265D01*
X132146870Y-56707265D01*
X132830000Y-57390395D01*
X133385816Y-56834579D01*
X137784786Y-56834579D01*
X137972408Y-57288657D01*
X138319515Y-57636371D01*
X138773266Y-57824785D01*
X139264579Y-57825214D01*
X139718657Y-57637592D01*
X139861608Y-57494891D01*
X139955910Y-57641441D01*
X140168110Y-57786431D01*
X140420000Y-57837440D01*
X141620000Y-57837440D01*
X141855317Y-57793162D01*
X142071441Y-57654090D01*
X142216431Y-57441890D01*
X142267440Y-57190000D01*
X142267440Y-55990000D01*
X142223162Y-55754683D01*
X142084090Y-55538559D01*
X141871890Y-55393569D01*
X141620000Y-55342560D01*
X140420000Y-55342560D01*
X140184683Y-55386838D01*
X139968559Y-55525910D01*
X139860569Y-55683958D01*
X139720485Y-55543629D01*
X139266734Y-55355215D01*
X138775421Y-55354786D01*
X138321343Y-55542408D01*
X137973629Y-55889515D01*
X137785215Y-56343266D01*
X137784786Y-56834579D01*
X133385816Y-56834579D01*
X133513130Y-56707265D01*
X133463617Y-56481836D01*
X132998964Y-56322193D01*
X132508587Y-56352518D01*
X132196383Y-56481836D01*
X132146870Y-56707265D01*
X129720821Y-56707265D01*
X129754093Y-56540000D01*
X129641054Y-55971715D01*
X129319147Y-55489946D01*
X128978447Y-55262298D01*
X129121358Y-55195183D01*
X129481501Y-54800000D01*
X152902560Y-54800000D01*
X152902560Y-56400000D01*
X152946838Y-56635317D01*
X153085910Y-56851441D01*
X153298110Y-56996431D01*
X153550000Y-57047440D01*
X153793087Y-57047440D01*
X153538200Y-57152757D01*
X153134176Y-57556077D01*
X152915250Y-58083309D01*
X152914752Y-58654187D01*
X153132757Y-59181800D01*
X153536077Y-59585824D01*
X153943850Y-59755146D01*
X153538200Y-59922757D01*
X153134176Y-60326077D01*
X152915250Y-60853309D01*
X152914752Y-61424187D01*
X153132757Y-61951800D01*
X153536077Y-62355824D01*
X153943850Y-62525146D01*
X153538200Y-62692757D01*
X153134176Y-63096077D01*
X152915250Y-63623309D01*
X152914752Y-64194187D01*
X153132757Y-64721800D01*
X153536077Y-65125824D01*
X153928060Y-65288590D01*
X153595995Y-65426136D01*
X153521861Y-65672255D01*
X154350000Y-66500395D01*
X155178139Y-65672255D01*
X155104005Y-65426136D01*
X154748062Y-65298196D01*
X155161800Y-65127243D01*
X155565824Y-64723923D01*
X155784750Y-64196691D01*
X155785248Y-63625813D01*
X155567243Y-63098200D01*
X155163923Y-62694176D01*
X154756150Y-62524854D01*
X155161800Y-62357243D01*
X155565824Y-61953923D01*
X155784750Y-61426691D01*
X155785248Y-60855813D01*
X155567243Y-60328200D01*
X155163923Y-59924176D01*
X154756150Y-59754854D01*
X155161800Y-59587243D01*
X155565824Y-59183923D01*
X155784750Y-58656691D01*
X155785248Y-58085813D01*
X155567243Y-57558200D01*
X155278734Y-57269187D01*
X155754752Y-57269187D01*
X155972757Y-57796800D01*
X156376077Y-58200824D01*
X156783850Y-58370146D01*
X156378200Y-58537757D01*
X155974176Y-58941077D01*
X155755250Y-59468309D01*
X155754752Y-60039187D01*
X155972757Y-60566800D01*
X156376077Y-60970824D01*
X156783850Y-61140146D01*
X156378200Y-61307757D01*
X155974176Y-61711077D01*
X155755250Y-62238309D01*
X155754752Y-62809187D01*
X155972757Y-63336800D01*
X156376077Y-63740824D01*
X156783850Y-63910146D01*
X156378200Y-64077757D01*
X155974176Y-64481077D01*
X155755250Y-65008309D01*
X155754752Y-65579187D01*
X155972757Y-66106800D01*
X156376077Y-66510824D01*
X156903309Y-66729750D01*
X157474187Y-66730248D01*
X158001800Y-66512243D01*
X158405824Y-66108923D01*
X158624750Y-65581691D01*
X158625248Y-65010813D01*
X158407243Y-64483200D01*
X158003923Y-64079176D01*
X157596150Y-63909854D01*
X158001800Y-63742243D01*
X158405824Y-63338923D01*
X158624750Y-62811691D01*
X158625248Y-62240813D01*
X158407243Y-61713200D01*
X158003923Y-61309176D01*
X157596150Y-61139854D01*
X158001800Y-60972243D01*
X158405824Y-60568923D01*
X158624750Y-60041691D01*
X158625248Y-59470813D01*
X158407243Y-58943200D01*
X158003923Y-58539176D01*
X157596150Y-58369854D01*
X158001800Y-58202243D01*
X158405824Y-57798923D01*
X158624750Y-57271691D01*
X158625248Y-56700813D01*
X158407243Y-56173200D01*
X158003923Y-55769176D01*
X157476691Y-55550250D01*
X156905813Y-55549752D01*
X156378200Y-55767757D01*
X155974176Y-56171077D01*
X155755250Y-56698309D01*
X155754752Y-57269187D01*
X155278734Y-57269187D01*
X155163923Y-57154176D01*
X154906874Y-57047440D01*
X155150000Y-57047440D01*
X155385317Y-57003162D01*
X155601441Y-56864090D01*
X155746431Y-56651890D01*
X155797440Y-56400000D01*
X155797440Y-54800000D01*
X155753162Y-54564683D01*
X155614090Y-54348559D01*
X155401890Y-54203569D01*
X155150000Y-54152560D01*
X153550000Y-54152560D01*
X153314683Y-54196838D01*
X153098559Y-54335910D01*
X152953569Y-54548110D01*
X152902560Y-54800000D01*
X129481501Y-54800000D01*
X129511645Y-54766924D01*
X129681476Y-54356890D01*
X129560155Y-54127000D01*
X128367000Y-54127000D01*
X128367000Y-54147000D01*
X128113000Y-54147000D01*
X128113000Y-54127000D01*
X126919845Y-54127000D01*
X126798524Y-54356890D01*
X126968355Y-54766924D01*
X127358642Y-55195183D01*
X127501553Y-55262298D01*
X127160853Y-55489946D01*
X126838946Y-55971715D01*
X126725907Y-56540000D01*
X119760000Y-56540000D01*
X119760000Y-49680000D01*
X126742560Y-49680000D01*
X126742560Y-49770000D01*
X126786838Y-50005317D01*
X126925910Y-50221441D01*
X127138110Y-50366431D01*
X127205541Y-50380086D01*
X127160853Y-50409946D01*
X126838946Y-50891715D01*
X126725907Y-51460000D01*
X126838946Y-52028285D01*
X127160853Y-52510054D01*
X127501553Y-52737702D01*
X127358642Y-52804817D01*
X126968355Y-53233076D01*
X126798524Y-53643110D01*
X126919845Y-53873000D01*
X128113000Y-53873000D01*
X128113000Y-53853000D01*
X128367000Y-53853000D01*
X128367000Y-53873000D01*
X129560155Y-53873000D01*
X129681476Y-53643110D01*
X129511645Y-53233076D01*
X129121358Y-52804817D01*
X128978447Y-52737702D01*
X129319147Y-52510054D01*
X129641054Y-52028285D01*
X129754093Y-51460000D01*
X129689993Y-51137745D01*
X145681861Y-51137745D01*
X145755995Y-51383864D01*
X146293223Y-51576965D01*
X146863454Y-51549778D01*
X147264005Y-51383864D01*
X147338139Y-51137745D01*
X146510000Y-50309605D01*
X145681861Y-51137745D01*
X129689993Y-51137745D01*
X129641054Y-50891715D01*
X129319147Y-50409946D01*
X129277548Y-50382150D01*
X129325317Y-50373162D01*
X129541441Y-50234090D01*
X129686431Y-50021890D01*
X129708436Y-49913223D01*
X145063035Y-49913223D01*
X145090222Y-50483454D01*
X145256136Y-50884005D01*
X145502255Y-50958139D01*
X146330395Y-50130000D01*
X146689605Y-50130000D01*
X147517745Y-50958139D01*
X147763864Y-50884005D01*
X147956965Y-50346777D01*
X147929778Y-49776546D01*
X147763864Y-49375995D01*
X147517745Y-49301861D01*
X146689605Y-50130000D01*
X146330395Y-50130000D01*
X145502255Y-49301861D01*
X145256136Y-49375995D01*
X145063035Y-49913223D01*
X129708436Y-49913223D01*
X129737440Y-49770000D01*
X129737440Y-48070000D01*
X129693162Y-47834683D01*
X129554090Y-47618559D01*
X129341890Y-47473569D01*
X129090000Y-47422560D01*
X127390000Y-47422560D01*
X127154683Y-47466838D01*
X126938559Y-47605910D01*
X126793569Y-47818110D01*
X126742560Y-48070000D01*
X126742560Y-48160000D01*
X119000000Y-48160000D01*
X118709161Y-48217852D01*
X118462599Y-48382599D01*
X118297852Y-48629161D01*
X118240000Y-48920000D01*
X118240000Y-67437537D01*
X118207808Y-67469673D01*
X118065162Y-67813201D01*
X118064838Y-68185167D01*
X63189259Y-68185167D01*
X62710000Y-67705908D01*
X62710000Y-67131025D01*
X64008581Y-67131025D01*
X64125601Y-67413446D01*
X64789663Y-67665018D01*
X65499448Y-67643314D01*
X66054399Y-67413446D01*
X66171419Y-67131025D01*
X65090000Y-66049605D01*
X64008581Y-67131025D01*
X62710000Y-67131025D01*
X62710000Y-65569663D01*
X63294982Y-65569663D01*
X63316686Y-66279448D01*
X63546554Y-66834399D01*
X63828975Y-66951419D01*
X64910395Y-65870000D01*
X65269605Y-65870000D01*
X66351025Y-66951419D01*
X66633446Y-66834399D01*
X66885018Y-66170337D01*
X66863314Y-65460552D01*
X66633446Y-64905601D01*
X66351025Y-64788581D01*
X65269605Y-65870000D01*
X64910395Y-65870000D01*
X63828975Y-64788581D01*
X63546554Y-64905601D01*
X63294982Y-65569663D01*
X62710000Y-65569663D01*
X62710000Y-64608975D01*
X64008581Y-64608975D01*
X65090000Y-65690395D01*
X66171419Y-64608975D01*
X66054399Y-64326554D01*
X65390337Y-64074982D01*
X64680552Y-64096686D01*
X64125601Y-64326554D01*
X64008581Y-64608975D01*
X62710000Y-64608975D01*
X62710000Y-59650000D01*
X63292560Y-59650000D01*
X63292560Y-61950000D01*
X63336838Y-62185317D01*
X63475910Y-62401441D01*
X63688110Y-62546431D01*
X63940000Y-62597440D01*
X66240000Y-62597440D01*
X66475317Y-62553162D01*
X66691441Y-62414090D01*
X66713070Y-62382434D01*
X110855226Y-62382434D01*
X111103538Y-62983395D01*
X111562927Y-63443586D01*
X112163453Y-63692946D01*
X112813694Y-63693514D01*
X113414655Y-63445202D01*
X113874846Y-62985813D01*
X114124206Y-62385287D01*
X114124774Y-61735046D01*
X113876462Y-61134085D01*
X113417073Y-60673894D01*
X112816547Y-60424534D01*
X112166306Y-60423966D01*
X111565345Y-60672278D01*
X111105154Y-61131667D01*
X110855794Y-61732193D01*
X110855226Y-62382434D01*
X66713070Y-62382434D01*
X66836431Y-62201890D01*
X66887440Y-61950000D01*
X66887440Y-59650000D01*
X66843162Y-59414683D01*
X66704090Y-59198559D01*
X66491890Y-59053569D01*
X66240000Y-59002560D01*
X63940000Y-59002560D01*
X63704683Y-59046838D01*
X63488559Y-59185910D01*
X63343569Y-59398110D01*
X63292560Y-59650000D01*
X62710000Y-59650000D01*
X62710000Y-58400000D01*
X93752560Y-58400000D01*
X93752560Y-59600000D01*
X93796838Y-59835317D01*
X93935910Y-60051441D01*
X94093958Y-60159431D01*
X93953629Y-60299515D01*
X93765215Y-60753266D01*
X93764786Y-61244579D01*
X93952408Y-61698657D01*
X94299515Y-62046371D01*
X94753266Y-62234785D01*
X95244579Y-62235214D01*
X95698657Y-62047592D01*
X96046371Y-61700485D01*
X96234785Y-61246734D01*
X96235214Y-60755421D01*
X96047592Y-60301343D01*
X95904891Y-60158392D01*
X96051441Y-60064090D01*
X96196431Y-59851890D01*
X96247440Y-59600000D01*
X96247440Y-58400000D01*
X96203162Y-58164683D01*
X96064090Y-57948559D01*
X95851890Y-57803569D01*
X95600000Y-57752560D01*
X94400000Y-57752560D01*
X94164683Y-57796838D01*
X93948559Y-57935910D01*
X93803569Y-58148110D01*
X93752560Y-58400000D01*
X62710000Y-58400000D01*
X62710000Y-44840000D01*
X63945907Y-44840000D01*
X64058946Y-45408285D01*
X64380853Y-45890054D01*
X64710026Y-46110000D01*
X64380853Y-46329946D01*
X64058946Y-46811715D01*
X63945907Y-47380000D01*
X64058946Y-47948285D01*
X64380853Y-48430054D01*
X64710026Y-48650000D01*
X64380853Y-48869946D01*
X64058946Y-49351715D01*
X63945907Y-49920000D01*
X64058946Y-50488285D01*
X64380853Y-50970054D01*
X64710026Y-51190000D01*
X64380853Y-51409946D01*
X64058946Y-51891715D01*
X63945907Y-52460000D01*
X64058946Y-53028285D01*
X64380853Y-53510054D01*
X64710026Y-53730000D01*
X64380853Y-53949946D01*
X64058946Y-54431715D01*
X63945907Y-55000000D01*
X64058946Y-55568285D01*
X64380853Y-56050054D01*
X64862622Y-56371961D01*
X65430907Y-56485000D01*
X65489093Y-56485000D01*
X66057378Y-56371961D01*
X66539147Y-56050054D01*
X66539971Y-56048821D01*
X66546838Y-56085317D01*
X66685910Y-56301441D01*
X66898110Y-56446431D01*
X67150000Y-56497440D01*
X68850000Y-56497440D01*
X69085317Y-56453162D01*
X69301441Y-56314090D01*
X69446431Y-56101890D01*
X69497440Y-55850000D01*
X69497440Y-54150000D01*
X69453162Y-53914683D01*
X69314090Y-53698559D01*
X69101890Y-53553569D01*
X69034459Y-53539914D01*
X69079147Y-53510054D01*
X69401054Y-53028285D01*
X69514093Y-52460000D01*
X69506692Y-52422789D01*
X70365920Y-52422789D01*
X70690250Y-53207727D01*
X71290274Y-53808800D01*
X72074645Y-54134499D01*
X72923949Y-54135240D01*
X73708887Y-53810910D01*
X74006439Y-53513877D01*
X88164568Y-53513877D01*
X88324335Y-53832632D01*
X89115057Y-54142595D01*
X89964206Y-54126367D01*
X90673345Y-53832632D01*
X90833112Y-53513877D01*
X89498840Y-52179605D01*
X88164568Y-53513877D01*
X74006439Y-53513877D01*
X74309960Y-53210886D01*
X74635659Y-52426515D01*
X74636365Y-51616217D01*
X87356245Y-51616217D01*
X87372473Y-52465366D01*
X87666208Y-53174505D01*
X87984963Y-53334272D01*
X89319235Y-52000000D01*
X89678445Y-52000000D01*
X91012717Y-53334272D01*
X91331472Y-53174505D01*
X91641435Y-52383783D01*
X91625207Y-51534634D01*
X91331472Y-50825495D01*
X91012717Y-50665728D01*
X89678445Y-52000000D01*
X89319235Y-52000000D01*
X87984963Y-50665728D01*
X87666208Y-50825495D01*
X87356245Y-51616217D01*
X74636365Y-51616217D01*
X74636400Y-51577211D01*
X74312070Y-50792273D01*
X74006455Y-50486123D01*
X88164568Y-50486123D01*
X89498840Y-51820395D01*
X90833112Y-50486123D01*
X90673345Y-50167368D01*
X89882623Y-49857405D01*
X89033474Y-49873633D01*
X88324335Y-50167368D01*
X88164568Y-50486123D01*
X74006455Y-50486123D01*
X73712046Y-50191200D01*
X72927675Y-49865501D01*
X72078371Y-49864760D01*
X71293433Y-50189090D01*
X70692360Y-50789114D01*
X70366661Y-51573485D01*
X70365920Y-52422789D01*
X69506692Y-52422789D01*
X69401054Y-51891715D01*
X69079147Y-51409946D01*
X68749974Y-51190000D01*
X69079147Y-50970054D01*
X69401054Y-50488285D01*
X69514093Y-49920000D01*
X69401054Y-49351715D01*
X69342963Y-49264775D01*
X104114803Y-49264775D01*
X104287233Y-49682086D01*
X104606235Y-50001645D01*
X105023244Y-50174803D01*
X105474775Y-50175197D01*
X105892086Y-50002767D01*
X106211645Y-49683765D01*
X106384803Y-49266756D01*
X106385119Y-48904883D01*
X106744775Y-48905197D01*
X107162086Y-48732767D01*
X107481645Y-48413765D01*
X107654803Y-47996756D01*
X107655197Y-47545225D01*
X107482767Y-47127914D01*
X107185373Y-46830000D01*
X145062560Y-46830000D01*
X145062560Y-48430000D01*
X145106838Y-48665317D01*
X145245910Y-48881441D01*
X145458110Y-49026431D01*
X145696201Y-49074646D01*
X145681861Y-49122255D01*
X146510000Y-49950395D01*
X147298560Y-49161834D01*
X152014543Y-49161834D01*
X152414853Y-50130658D01*
X153155443Y-50872542D01*
X154123567Y-51274542D01*
X155171834Y-51275457D01*
X156140658Y-50875147D01*
X156882542Y-50134557D01*
X157284542Y-49166433D01*
X157285457Y-48118166D01*
X156885147Y-47149342D01*
X156144557Y-46407458D01*
X155176433Y-46005458D01*
X154128166Y-46004543D01*
X153159342Y-46404853D01*
X152417458Y-47145443D01*
X152015458Y-48113567D01*
X152014543Y-49161834D01*
X147298560Y-49161834D01*
X147338139Y-49122255D01*
X147323855Y-49074833D01*
X147545317Y-49033162D01*
X147761441Y-48894090D01*
X147906431Y-48681890D01*
X147957440Y-48430000D01*
X147957440Y-46830000D01*
X147913162Y-46594683D01*
X147774090Y-46378559D01*
X147561890Y-46233569D01*
X147310000Y-46182560D01*
X145710000Y-46182560D01*
X145474683Y-46226838D01*
X145258559Y-46365910D01*
X145113569Y-46578110D01*
X145062560Y-46830000D01*
X107185373Y-46830000D01*
X107163765Y-46808355D01*
X106746756Y-46635197D01*
X106295225Y-46634803D01*
X106251939Y-46652689D01*
X106226250Y-46627000D01*
X105377000Y-46627000D01*
X105377000Y-47476250D01*
X105402448Y-47501698D01*
X105385197Y-47543244D01*
X105384881Y-47905117D01*
X105025225Y-47904803D01*
X104607914Y-48077233D01*
X104288355Y-48396235D01*
X104115197Y-48813244D01*
X104114803Y-49264775D01*
X69342963Y-49264775D01*
X69079147Y-48869946D01*
X68749974Y-48650000D01*
X69079147Y-48430054D01*
X69401054Y-47948285D01*
X69514093Y-47380000D01*
X69401054Y-46811715D01*
X69383705Y-46785750D01*
X104115000Y-46785750D01*
X104115000Y-47126310D01*
X104211673Y-47359699D01*
X104390302Y-47538327D01*
X104623691Y-47635000D01*
X104964250Y-47635000D01*
X105123000Y-47476250D01*
X105123000Y-46627000D01*
X104273750Y-46627000D01*
X104115000Y-46785750D01*
X69383705Y-46785750D01*
X69079147Y-46329946D01*
X68749974Y-46110000D01*
X69079147Y-45890054D01*
X69090081Y-45873690D01*
X104115000Y-45873690D01*
X104115000Y-46214250D01*
X104273750Y-46373000D01*
X105123000Y-46373000D01*
X105123000Y-45523750D01*
X105377000Y-45523750D01*
X105377000Y-46373000D01*
X106226250Y-46373000D01*
X106385000Y-46214250D01*
X106385000Y-45873690D01*
X106288327Y-45640301D01*
X106109698Y-45461673D01*
X105876309Y-45365000D01*
X105535750Y-45365000D01*
X105377000Y-45523750D01*
X105123000Y-45523750D01*
X104964250Y-45365000D01*
X104623691Y-45365000D01*
X104390302Y-45461673D01*
X104211673Y-45640301D01*
X104115000Y-45873690D01*
X69090081Y-45873690D01*
X69401054Y-45408285D01*
X69514093Y-44840000D01*
X69401054Y-44271715D01*
X69079147Y-43789946D01*
X68749974Y-43570000D01*
X69079147Y-43350054D01*
X69401054Y-42868285D01*
X69514093Y-42300000D01*
X69401054Y-41731715D01*
X69079147Y-41249946D01*
X68597378Y-40928039D01*
X68029093Y-40815000D01*
X67970907Y-40815000D01*
X67402622Y-40928039D01*
X66920853Y-41249946D01*
X66731655Y-41533101D01*
X66731645Y-41533076D01*
X66341358Y-41104817D01*
X65816892Y-40858514D01*
X65587000Y-40979181D01*
X65587000Y-42173000D01*
X65607000Y-42173000D01*
X65607000Y-42427000D01*
X65587000Y-42427000D01*
X65587000Y-42447000D01*
X65333000Y-42447000D01*
X65333000Y-42427000D01*
X64139845Y-42427000D01*
X64018524Y-42656890D01*
X64188355Y-43066924D01*
X64578642Y-43495183D01*
X64721553Y-43562298D01*
X64380853Y-43789946D01*
X64058946Y-44271715D01*
X63945907Y-44840000D01*
X62710000Y-44840000D01*
X62710000Y-41943110D01*
X64018524Y-41943110D01*
X64139845Y-42173000D01*
X65333000Y-42173000D01*
X65333000Y-40979181D01*
X65103108Y-40858514D01*
X64578642Y-41104817D01*
X64188355Y-41533076D01*
X64018524Y-41943110D01*
X62710000Y-41943110D01*
X62710000Y-38603694D01*
X118596486Y-38603694D01*
X118844798Y-39204655D01*
X119304187Y-39664846D01*
X119904713Y-39914206D01*
X120554954Y-39914774D01*
X121155915Y-39666462D01*
X121616106Y-39207073D01*
X121865466Y-38606547D01*
X121865468Y-38603694D01*
X128756486Y-38603694D01*
X129004798Y-39204655D01*
X129464187Y-39664846D01*
X130064713Y-39914206D01*
X130714954Y-39914774D01*
X131315915Y-39666462D01*
X131776106Y-39207073D01*
X131965924Y-38749940D01*
X147802360Y-38749940D01*
X147802360Y-42250060D01*
X147846638Y-42485377D01*
X147985710Y-42701501D01*
X148197910Y-42846491D01*
X148449800Y-42897500D01*
X151949920Y-42897500D01*
X152185237Y-42853222D01*
X152401361Y-42714150D01*
X152546351Y-42501950D01*
X152597360Y-42250060D01*
X152597360Y-40785750D01*
X153814280Y-40785750D01*
X153814280Y-42376370D01*
X153910953Y-42609759D01*
X154089582Y-42788387D01*
X154322971Y-42885060D01*
X155913590Y-42885060D01*
X156072340Y-42726310D01*
X156072340Y-40627000D01*
X156326340Y-40627000D01*
X156326340Y-42726310D01*
X156485090Y-42885060D01*
X158075709Y-42885060D01*
X158309098Y-42788387D01*
X158487727Y-42609759D01*
X158584400Y-42376370D01*
X158584400Y-40785750D01*
X158425650Y-40627000D01*
X156326340Y-40627000D01*
X156072340Y-40627000D01*
X153973030Y-40627000D01*
X153814280Y-40785750D01*
X152597360Y-40785750D01*
X152597360Y-38749940D01*
X152553082Y-38514623D01*
X152414010Y-38298499D01*
X152249450Y-38186060D01*
X152913850Y-38186060D01*
X153072600Y-38027310D01*
X153072600Y-35928000D01*
X153326600Y-35928000D01*
X153326600Y-38027310D01*
X153485350Y-38186060D01*
X154151272Y-38186060D01*
X154089582Y-38211613D01*
X153910953Y-38390241D01*
X153814280Y-38623630D01*
X153814280Y-40214250D01*
X153973030Y-40373000D01*
X156072340Y-40373000D01*
X156072340Y-38273690D01*
X156326340Y-38273690D01*
X156326340Y-40373000D01*
X158425650Y-40373000D01*
X158584400Y-40214250D01*
X158584400Y-38623630D01*
X158487727Y-38390241D01*
X158309098Y-38211613D01*
X158075709Y-38114940D01*
X156485090Y-38114940D01*
X156326340Y-38273690D01*
X156072340Y-38273690D01*
X155913590Y-38114940D01*
X155247668Y-38114940D01*
X155309358Y-38089387D01*
X155487987Y-37910759D01*
X155584660Y-37677370D01*
X155584660Y-36086750D01*
X155425910Y-35928000D01*
X153326600Y-35928000D01*
X153072600Y-35928000D01*
X150973290Y-35928000D01*
X150814540Y-36086750D01*
X150814540Y-37677370D01*
X150911213Y-37910759D01*
X151089842Y-38089387D01*
X151121500Y-38102500D01*
X148449800Y-38102500D01*
X148214483Y-38146778D01*
X147998359Y-38285850D01*
X147853369Y-38498050D01*
X147802360Y-38749940D01*
X131965924Y-38749940D01*
X132025466Y-38606547D01*
X132026034Y-37956306D01*
X131777722Y-37355345D01*
X131318333Y-36895154D01*
X130717807Y-36645794D01*
X130067566Y-36645226D01*
X129466605Y-36893538D01*
X129006414Y-37352927D01*
X128757054Y-37953453D01*
X128756486Y-38603694D01*
X121865468Y-38603694D01*
X121866034Y-37956306D01*
X121617722Y-37355345D01*
X121158333Y-36895154D01*
X120557807Y-36645794D01*
X119907566Y-36645226D01*
X119306605Y-36893538D01*
X118846414Y-37352927D01*
X118597054Y-37953453D01*
X118596486Y-38603694D01*
X62710000Y-38603694D01*
X62710000Y-32580000D01*
X63292560Y-32580000D01*
X63292560Y-34880000D01*
X63336838Y-35115317D01*
X63475910Y-35331441D01*
X63688110Y-35476431D01*
X63940000Y-35527440D01*
X66240000Y-35527440D01*
X66475317Y-35483162D01*
X66691441Y-35344090D01*
X66836431Y-35131890D01*
X66887440Y-34880000D01*
X66887440Y-33924630D01*
X150814540Y-33924630D01*
X150814540Y-35515250D01*
X150973290Y-35674000D01*
X153072600Y-35674000D01*
X153072600Y-33574690D01*
X153326600Y-33574690D01*
X153326600Y-35674000D01*
X155425910Y-35674000D01*
X155584660Y-35515250D01*
X155584660Y-34535750D01*
X157965000Y-34535750D01*
X157965000Y-35276309D01*
X158061673Y-35509698D01*
X158240301Y-35688327D01*
X158473690Y-35785000D01*
X159214250Y-35785000D01*
X159373000Y-35626250D01*
X159373000Y-34377000D01*
X159627000Y-34377000D01*
X159627000Y-35626250D01*
X159785750Y-35785000D01*
X160526310Y-35785000D01*
X160759699Y-35688327D01*
X160938327Y-35509698D01*
X161035000Y-35276309D01*
X161035000Y-34535750D01*
X160876250Y-34377000D01*
X159627000Y-34377000D01*
X159373000Y-34377000D01*
X158123750Y-34377000D01*
X157965000Y-34535750D01*
X155584660Y-34535750D01*
X155584660Y-33924630D01*
X155487987Y-33691241D01*
X155309358Y-33512613D01*
X155075969Y-33415940D01*
X153485350Y-33415940D01*
X153326600Y-33574690D01*
X153072600Y-33574690D01*
X152913850Y-33415940D01*
X151323231Y-33415940D01*
X151089842Y-33512613D01*
X150911213Y-33691241D01*
X150814540Y-33924630D01*
X66887440Y-33924630D01*
X66887440Y-32580000D01*
X66843162Y-32344683D01*
X66704090Y-32128559D01*
X66536415Y-32013991D01*
X157964735Y-32013991D01*
X158197932Y-32578371D01*
X158375092Y-32755841D01*
X158240301Y-32811673D01*
X158061673Y-32990302D01*
X157965000Y-33223691D01*
X157965000Y-33964250D01*
X158123750Y-34123000D01*
X159373000Y-34123000D01*
X159373000Y-34103000D01*
X159627000Y-34103000D01*
X159627000Y-34123000D01*
X160876250Y-34123000D01*
X161035000Y-33964250D01*
X161035000Y-33223691D01*
X160938327Y-32990302D01*
X160759699Y-32811673D01*
X160625006Y-32755881D01*
X160800551Y-32580643D01*
X161034733Y-32016670D01*
X161035265Y-31406009D01*
X160802068Y-30841629D01*
X160495975Y-30535000D01*
X160526310Y-30535000D01*
X160759699Y-30438327D01*
X160938327Y-30259698D01*
X161035000Y-30026309D01*
X161035000Y-29285750D01*
X160876250Y-29127000D01*
X159627000Y-29127000D01*
X159627000Y-29147000D01*
X159373000Y-29147000D01*
X159373000Y-29127000D01*
X158123750Y-29127000D01*
X157965000Y-29285750D01*
X157965000Y-30026309D01*
X158061673Y-30259698D01*
X158240301Y-30438327D01*
X158473690Y-30535000D01*
X158504339Y-30535000D01*
X158199449Y-30839357D01*
X157965267Y-31403330D01*
X157964735Y-32013991D01*
X66536415Y-32013991D01*
X66491890Y-31983569D01*
X66240000Y-31932560D01*
X63940000Y-31932560D01*
X63704683Y-31976838D01*
X63488559Y-32115910D01*
X63343569Y-32328110D01*
X63292560Y-32580000D01*
X62710000Y-32580000D01*
X62710000Y-30452340D01*
X72727265Y-30452340D01*
X73045501Y-30906203D01*
X74306434Y-31432936D01*
X75672956Y-31437035D01*
X76901346Y-30932532D01*
X94877073Y-30932532D01*
X94975736Y-31199387D01*
X95585461Y-31425908D01*
X96235460Y-31401856D01*
X96724264Y-31199387D01*
X96822927Y-30932532D01*
X95850000Y-29959605D01*
X94877073Y-30932532D01*
X76901346Y-30932532D01*
X76937027Y-30917878D01*
X76954499Y-30906203D01*
X77272735Y-30452340D01*
X75000000Y-28179605D01*
X72727265Y-30452340D01*
X62710000Y-30452340D01*
X62710000Y-29013501D01*
X63304691Y-29013501D01*
X63575868Y-29669800D01*
X64077559Y-30172367D01*
X64733384Y-30444689D01*
X65443501Y-30445309D01*
X66099800Y-30174132D01*
X66602367Y-29672441D01*
X66874689Y-29016616D01*
X66874989Y-28672956D01*
X71562965Y-28672956D01*
X72082122Y-29937027D01*
X72093797Y-29954499D01*
X72547660Y-30272735D01*
X74820395Y-28000000D01*
X75179605Y-28000000D01*
X77452340Y-30272735D01*
X77906203Y-29954499D01*
X78089603Y-29515461D01*
X94204092Y-29515461D01*
X94228144Y-30165460D01*
X94430613Y-30654264D01*
X94697468Y-30752927D01*
X95670395Y-29780000D01*
X96029605Y-29780000D01*
X97002532Y-30752927D01*
X97269387Y-30654264D01*
X97495908Y-30044539D01*
X97471856Y-29394540D01*
X97269387Y-28905736D01*
X97002532Y-28807073D01*
X96029605Y-29780000D01*
X95670395Y-29780000D01*
X94697468Y-28807073D01*
X94430613Y-28905736D01*
X94204092Y-29515461D01*
X78089603Y-29515461D01*
X78432936Y-28693566D01*
X78433134Y-28627468D01*
X94877073Y-28627468D01*
X95850000Y-29600395D01*
X96670395Y-28780000D01*
X99202560Y-28780000D01*
X99202560Y-30780000D01*
X99246838Y-31015317D01*
X99385910Y-31231441D01*
X99598110Y-31376431D01*
X99850000Y-31427440D01*
X101850000Y-31427440D01*
X102085317Y-31383162D01*
X102301441Y-31244090D01*
X102446431Y-31031890D01*
X102466551Y-30932532D01*
X119087073Y-30932532D01*
X119185736Y-31199387D01*
X119795461Y-31425908D01*
X120445460Y-31401856D01*
X120934264Y-31199387D01*
X121032927Y-30932532D01*
X120060000Y-29959605D01*
X119087073Y-30932532D01*
X102466551Y-30932532D01*
X102497440Y-30780000D01*
X102497440Y-29515461D01*
X118414092Y-29515461D01*
X118438144Y-30165460D01*
X118640613Y-30654264D01*
X118907468Y-30752927D01*
X119880395Y-29780000D01*
X120239605Y-29780000D01*
X121212532Y-30752927D01*
X121479387Y-30654264D01*
X121705908Y-30044539D01*
X121681856Y-29394540D01*
X121479387Y-28905736D01*
X121212532Y-28807073D01*
X120239605Y-29780000D01*
X119880395Y-29780000D01*
X118907468Y-28807073D01*
X118640613Y-28905736D01*
X118414092Y-29515461D01*
X102497440Y-29515461D01*
X102497440Y-28780000D01*
X102468740Y-28627468D01*
X119087073Y-28627468D01*
X120060000Y-29600395D01*
X120880395Y-28780000D01*
X123412560Y-28780000D01*
X123412560Y-30780000D01*
X123456838Y-31015317D01*
X123595910Y-31231441D01*
X123808110Y-31376431D01*
X124060000Y-31427440D01*
X126060000Y-31427440D01*
X126295317Y-31383162D01*
X126511441Y-31244090D01*
X126656431Y-31031890D01*
X126707440Y-30780000D01*
X126707440Y-28780000D01*
X135352560Y-28780000D01*
X135352560Y-30780000D01*
X135396838Y-31015317D01*
X135535910Y-31231441D01*
X135748110Y-31376431D01*
X136000000Y-31427440D01*
X138000000Y-31427440D01*
X138235317Y-31383162D01*
X138451441Y-31244090D01*
X138596431Y-31031890D01*
X138616551Y-30932532D01*
X141027073Y-30932532D01*
X141125736Y-31199387D01*
X141735461Y-31425908D01*
X142385460Y-31401856D01*
X142874264Y-31199387D01*
X142972927Y-30932532D01*
X142000000Y-29959605D01*
X141027073Y-30932532D01*
X138616551Y-30932532D01*
X138647440Y-30780000D01*
X138647440Y-29515461D01*
X140354092Y-29515461D01*
X140378144Y-30165460D01*
X140580613Y-30654264D01*
X140847468Y-30752927D01*
X141820395Y-29780000D01*
X142179605Y-29780000D01*
X143152532Y-30752927D01*
X143419387Y-30654264D01*
X143494404Y-30452340D01*
X145727265Y-30452340D01*
X146045501Y-30906203D01*
X147306434Y-31432936D01*
X148672956Y-31437035D01*
X149937027Y-30917878D01*
X149954499Y-30906203D01*
X150272735Y-30452340D01*
X148000000Y-28179605D01*
X145727265Y-30452340D01*
X143494404Y-30452340D01*
X143645908Y-30044539D01*
X143621856Y-29394540D01*
X143419387Y-28905736D01*
X143152532Y-28807073D01*
X142179605Y-29780000D01*
X141820395Y-29780000D01*
X140847468Y-28807073D01*
X140580613Y-28905736D01*
X140354092Y-29515461D01*
X138647440Y-29515461D01*
X138647440Y-28780000D01*
X138618740Y-28627468D01*
X141027073Y-28627468D01*
X142000000Y-29600395D01*
X142927439Y-28672956D01*
X144562965Y-28672956D01*
X145082122Y-29937027D01*
X145093797Y-29954499D01*
X145547660Y-30272735D01*
X147820395Y-28000000D01*
X148179605Y-28000000D01*
X150452340Y-30272735D01*
X150906203Y-29954499D01*
X151432936Y-28693566D01*
X151437035Y-27327044D01*
X151205788Y-26763991D01*
X157964735Y-26763991D01*
X158197932Y-27328371D01*
X158375092Y-27505841D01*
X158240301Y-27561673D01*
X158061673Y-27740302D01*
X157965000Y-27973691D01*
X157965000Y-28714250D01*
X158123750Y-28873000D01*
X159373000Y-28873000D01*
X159373000Y-28853000D01*
X159627000Y-28853000D01*
X159627000Y-28873000D01*
X160876250Y-28873000D01*
X161035000Y-28714250D01*
X161035000Y-27973691D01*
X160938327Y-27740302D01*
X160759699Y-27561673D01*
X160625006Y-27505881D01*
X160800551Y-27330643D01*
X161034733Y-26766670D01*
X161035265Y-26156009D01*
X160802068Y-25591629D01*
X160370643Y-25159449D01*
X159806670Y-24925267D01*
X159196009Y-24924735D01*
X158631629Y-25157932D01*
X158199449Y-25589357D01*
X157965267Y-26153330D01*
X157964735Y-26763991D01*
X151205788Y-26763991D01*
X150917878Y-26062973D01*
X150906203Y-26045501D01*
X150452340Y-25727265D01*
X148179605Y-28000000D01*
X147820395Y-28000000D01*
X145547660Y-25727265D01*
X145093797Y-26045501D01*
X144567064Y-27306434D01*
X144562965Y-28672956D01*
X142927439Y-28672956D01*
X142972927Y-28627468D01*
X142874264Y-28360613D01*
X142264539Y-28134092D01*
X141614540Y-28158144D01*
X141125736Y-28360613D01*
X141027073Y-28627468D01*
X138618740Y-28627468D01*
X138603162Y-28544683D01*
X138464090Y-28328559D01*
X138251890Y-28183569D01*
X138000000Y-28132560D01*
X136000000Y-28132560D01*
X135764683Y-28176838D01*
X135548559Y-28315910D01*
X135403569Y-28528110D01*
X135352560Y-28780000D01*
X126707440Y-28780000D01*
X126663162Y-28544683D01*
X126524090Y-28328559D01*
X126311890Y-28183569D01*
X126060000Y-28132560D01*
X124060000Y-28132560D01*
X123824683Y-28176838D01*
X123608559Y-28315910D01*
X123463569Y-28528110D01*
X123412560Y-28780000D01*
X120880395Y-28780000D01*
X121032927Y-28627468D01*
X120934264Y-28360613D01*
X120324539Y-28134092D01*
X119674540Y-28158144D01*
X119185736Y-28360613D01*
X119087073Y-28627468D01*
X102468740Y-28627468D01*
X102453162Y-28544683D01*
X102314090Y-28328559D01*
X102101890Y-28183569D01*
X101850000Y-28132560D01*
X99850000Y-28132560D01*
X99614683Y-28176838D01*
X99398559Y-28315910D01*
X99253569Y-28528110D01*
X99202560Y-28780000D01*
X96670395Y-28780000D01*
X96822927Y-28627468D01*
X96724264Y-28360613D01*
X96114539Y-28134092D01*
X95464540Y-28158144D01*
X94975736Y-28360613D01*
X94877073Y-28627468D01*
X78433134Y-28627468D01*
X78437035Y-27327044D01*
X78332984Y-27073694D01*
X103706486Y-27073694D01*
X103954798Y-27674655D01*
X104414187Y-28134846D01*
X105014713Y-28384206D01*
X105664954Y-28384774D01*
X106265915Y-28136462D01*
X106726106Y-27677073D01*
X106975466Y-27076547D01*
X106975468Y-27073694D01*
X113866486Y-27073694D01*
X114114798Y-27674655D01*
X114574187Y-28134846D01*
X115174713Y-28384206D01*
X115824954Y-28384774D01*
X116425915Y-28136462D01*
X116886106Y-27677073D01*
X117135466Y-27076547D01*
X117136034Y-26426306D01*
X116887722Y-25825345D01*
X116428333Y-25365154D01*
X115827807Y-25115794D01*
X115177566Y-25115226D01*
X114576605Y-25363538D01*
X114116414Y-25822927D01*
X113867054Y-26423453D01*
X113866486Y-27073694D01*
X106975468Y-27073694D01*
X106976034Y-26426306D01*
X106727722Y-25825345D01*
X106268333Y-25365154D01*
X105667807Y-25115794D01*
X105017566Y-25115226D01*
X104416605Y-25363538D01*
X103956414Y-25822927D01*
X103707054Y-26423453D01*
X103706486Y-27073694D01*
X78332984Y-27073694D01*
X77917878Y-26062973D01*
X77906203Y-26045501D01*
X77452340Y-25727265D01*
X75179605Y-28000000D01*
X74820395Y-28000000D01*
X72547660Y-25727265D01*
X72093797Y-26045501D01*
X71567064Y-27306434D01*
X71562965Y-28672956D01*
X66874989Y-28672956D01*
X66875309Y-28306499D01*
X66604132Y-27650200D01*
X66102441Y-27147633D01*
X65446616Y-26875311D01*
X64736499Y-26874691D01*
X64080200Y-27145868D01*
X63577633Y-27647559D01*
X63305311Y-28303384D01*
X63304691Y-29013501D01*
X62710000Y-29013501D01*
X62710000Y-24710000D01*
X73969035Y-24710000D01*
X73062973Y-25082122D01*
M02*
