M48
;DRILL file {KiCad 4.0.7-e2-6376~58~ubuntu14.04.1} date Mon Feb 17 06:04:23 2020
;FORMAT={-:-/ absolute / inch / decimal}
FMAT,2
INCH,TZ
T1C0.016
T2C0.024
T3C0.031
T4C0.035
T5C0.039
T6C0.039
T7C0.043
T8C0.047
T9C0.051
T10C0.126
%
G90
G05
M72
T1
X2.7362Y-2.6181
X2.7795Y-1.685
X2.8189Y-1.4567
X2.8445Y-2.874
X2.8642Y-2.6181
X2.9134Y-3.1299
X2.9449Y-1.5669
X2.9823Y-2.874
X3.0315Y-2.4016
X3.0906Y-2.0571
X3.1004Y-1.3091
X3.1201Y-2.874
X3.1654Y-1.4961
X3.1693Y-1.8012
X3.1791Y-2.4016
X3.252Y-1.0866
X3.2677Y-2.874
X3.315Y-1.2913
X3.3169Y-2.0571
X3.3366Y-2.3327
X3.3563Y-2.6673
X3.4154Y-1.8012
X3.4646Y-2.7756
X3.4941Y-2.9823
X3.4941Y-3.1004
X3.5138Y-2.3327
X3.5138Y-2.5098
X3.563Y-3.1594
X3.5669Y-1.3228
X3.622Y-2.7756
X3.6516Y-2.3228
X3.6693Y-1.4567
X3.6693Y-1.5748
X3.6713Y-2.4803
X3.7008Y-2.6476
X3.7402Y-1.9488
X3.7402Y-3.1594
X3.7992Y-1.3878
X3.7992Y-1.5748
X3.8091Y-2.2638
X3.8484Y-2.5492
X3.8583Y-2.815
X3.878Y-2.9823
X3.937Y-1.5748
X3.9665Y-2.4016
X3.9961Y-2.8051
X3.9961Y-2.9724
X3.9961Y-3.1693
X4.0256Y-2.2441
X4.1339Y-1.5748
X4.1535Y-2.8051
X4.1732Y-2.4508
X4.2421Y-2.2933
X4.3012Y-2.6476
X4.3012Y-2.7953
X4.3799Y-2.6476
X4.3799Y-2.7559
X4.4291Y-2.5394
X4.5768Y-2.7264
X4.5866Y-2.5787
X4.685Y-2.6772
X4.7343Y-3.0413
X4.7362Y-2.7307
X4.7874Y-1.685
X4.813Y-2.5984
X4.937Y-1.5906
X4.937Y-1.7559
X5.0236Y-2.9921
X5.0591Y-2.6673
X5.0591Y-2.815
X5.0591Y-2.9173
X5.0709Y-1.5906
X5.0984Y-2.9646
X5.1969Y-2.815
X5.2295Y-2.6067
X5.3937Y-1.4665
X5.3937Y-1.6339
X5.4803Y-1.7874
X5.4882Y-2.9173
X5.5315Y-2.9646
X5.5512Y-1.9528
X5.6594Y-2.7303
X5.6614Y-2.9921
X5.685Y-2.0551
X5.9744Y-2.3524
T2
X3.7402Y-2.3228
X3.7402Y-2.4016
X4.1437Y-1.8307
X4.1437Y-1.9307
X4.1937Y-1.8807
X5.2295Y-2.2665
X5.2295Y-2.3453
X5.4083Y-2.3965
X5.4083Y-2.4752
X5.4732Y-2.228
X5.552Y-2.228
X5.5778Y-2.435
X5.6565Y-2.435
X5.7864Y-2.6909
X5.7864Y-2.7697
T3
X5.7681Y-1.8752
X5.7681Y-1.9736
T4
X6.2795Y-1.0417
X6.2795Y-1.1417
X6.2795Y-1.2484
X6.2795Y-1.3484
X6.2795Y-3.1087
X6.2795Y-3.2087
T5
X2.5772Y-1.6654
X2.5772Y-1.7654
X2.5772Y-1.8654
X2.5772Y-1.9654
X2.5772Y-2.0654
X2.5772Y-2.1654
X2.6772Y-1.6654
X2.6772Y-1.7654
X2.6772Y-1.8654
X2.6772Y-1.9654
X2.6772Y-2.0654
X2.6772Y-2.1654
X3.7736Y-1.1724
X3.9705Y-1.1724
X4.7268Y-1.1724
X4.9236Y-1.1724
X5.0488Y-1.926
X5.0488Y-2.026
X5.0488Y-2.126
X5.0488Y-2.226
X5.0488Y-2.326
X5.3937Y-1.1724
X5.5906Y-1.1724
X6.0768Y-2.189
X6.0768Y-2.298
X6.0768Y-2.4071
X6.0768Y-2.5161
X6.0768Y-2.6252
X6.1886Y-2.2435
X6.1886Y-2.3526
X6.1886Y-2.4616
X6.1886Y-2.5707
T6
X4.1473Y-1.0531
X4.4287Y-2.4433
X4.4287Y-2.8433
X4.5473Y-1.0531
X4.7335Y-1.5071
X5.1335Y-1.5071
T7
X2.6715Y-2.7921
X2.6715Y-2.8921
X2.6715Y-2.9921
X2.6715Y-3.0921
X2.6715Y-3.1921
T8
X2.8544Y-2.0472
X3.5236Y-2.0472
T9
X2.5626Y-1.1283
X2.5626Y-1.328
X2.5626Y-2.3937
X2.5626Y-2.5933
T10
X2.9528Y-1.1024
X3.2283Y-3.1496
X5.8268Y-1.1024
X5.8268Y-3.1496
X6.0886Y-1.915
X6.0886Y-2.8992
T6
X5.9134Y-1.6338G85X5.9134Y-1.5551
G05
X6.0708Y-1.4095G85X5.9921Y-1.4095
G05
X6.1496Y-1.6338G85X6.1496Y-1.5551
G05
T0
M30
